<?xml version="1.0" encoding="UTF-8"?>
<svg version="1.1" xmlns="http://www.w3.org/2000/svg" width="16" height="16">
<path d="M0 0 C0.86625 -0.00773438 1.7325 -0.01546875 2.625 -0.0234375 C5 0.375 5 0.375 6.7890625 1.5859375 C8.39038277 3.95175906 8.40035579 5.53515158 8.375 8.375 C8.38273437 9.24125 8.39046875 10.1075 8.3984375 11 C8 13.375 8 13.375 6.7890625 15.1640625 C4.42324094 16.76538277 2.83984842 16.77535579 0 16.75 C-0.86625 16.75773437 -1.7325 16.76546875 -2.625 16.7734375 C-5 16.375 -5 16.375 -6.7890625 15.1640625 C-8.39038277 12.79824094 -8.40035579 11.21484842 -8.375 8.375 C-8.38273438 7.50875 -8.39046875 6.6425 -8.3984375 5.75 C-8 3.375 -8 3.375 -6.7890625 1.5859375 C-4.42324094 -0.01538277 -2.83984842 -0.02535579 0 0 Z " fill="#DD3292" transform="translate(8,-0.375)"/>
<path d="M0 0 C2 1 2 1 3 3 C2.34 3 1.68 3 1 3 C1.495 3.78375 1.99 4.5675 2.5 5.375 C4 8 4 8 4 10 C-0.38461538 13 -0.38461538 13 -3 13 C-3.08121924 11.39667209 -3.13929134 9.79215974 -3.1875 8.1875 C-3.22230469 7.29417969 -3.25710937 6.40085937 -3.29296875 5.48046875 C-2.95081002 2.58352485 -2.24606427 1.77444972 0 0 Z " fill="#DD2D90" transform="translate(3,0)"/>
<path d="M0 0 C0.33 0.66 0.66 1.32 1 2 C1.33 1.34 1.66 0.68 2 0 C2.66 0 3.32 0 4 0 C4 0.99 4 1.98 4 3 C3.01 3 2.02 3 1 3 C1 4.65 1 6.3 1 8 C-1.875 8.1875 -1.875 8.1875 -5 8 C-5.66 7.01 -6.32 6.02 -7 5 C-4.87219421 2.65941363 -2.88437779 1.29299694 0 0 Z " fill="#EEE8EE" transform="translate(8,8)"/>
<path d="M0 0 C0 1.32 0 2.64 0 4 C0.66 4.66 1.32 5.32 2 6 C2 6.66 2 7.32 2 8 C-0.91517292 6.92598892 -2.77810176 6.22189824 -5 4 C-5 3.01 -5 2.02 -5 1 C-3 0 -3 0 0 0 Z " fill="#927F8E" transform="translate(9,2)"/>
</svg>
