<svg width="158" height="102" viewBox="0 0 158 102" fill="none" xmlns="http://www.w3.org/2000/svg">
<g clip-path="url(#clip0_598_354)">
<path d="M27.2741 84.7953C27.3693 84.948 27.4421 85.1184 27.4925 85.3065C27.787 86.4057 27.3364 88.1232 26.1408 90.4588C25.0577 92.5783 23.645 94.4799 21.9026 96.1637C19.9458 98.06 17.7091 99.3453 15.1924 100.02C13.2904 100.529 11.4897 100.578 9.79011 100.165C7.41563 99.5765 5.70063 98.3541 4.64511 96.4976C4.31742 95.9111 4.06154 95.2743 3.87745 94.5873C3.66042 93.7773 3.54579 92.9011 3.53357 91.9588C3.50103 88.9446 4.38716 86.0756 6.19196 83.352C7.92936 80.7239 9.94793 79.1017 12.2477 78.4855C12.3489 78.4584 12.4511 78.4349 12.5543 78.415C13.0124 78.331 13.4621 78.3461 13.9035 78.4604C14.398 78.5992 14.7581 78.8437 14.9838 79.1941C15.062 79.3126 15.1176 79.4334 15.1506 79.5563C15.3463 80.2867 14.7915 81.1524 13.4862 82.1532L12.7707 82.6937C10.8178 84.1704 9.4709 85.5079 8.73011 86.7063C7.99267 87.8883 7.47446 89.0929 7.17547 90.3202C6.87119 91.5567 6.84403 92.6413 7.094 93.5742C7.13857 93.7406 7.19302 93.9004 7.25734 94.0537C7.74497 95.295 8.77057 96.1286 10.3341 96.5545C11.6478 96.9156 13.0712 96.8907 14.6044 96.4799C17.0415 95.8269 19.0465 94.53 20.6193 92.5894C20.6371 92.5691 20.7565 92.3782 20.9774 92.0167C23.8674 87.2971 25.7644 84.8161 26.6683 84.5739C26.9359 84.5022 27.1378 84.576 27.2741 84.7953ZM29.0913 88.5986C28.9747 89.1181 28.9949 89.6708 29.1519 90.2566L29.1926 90.4085C29.3834 91.0627 29.6772 91.5808 30.0741 91.9628C30.4416 92.3216 30.8025 92.4536 31.1568 92.3586C31.5546 92.252 31.9059 91.8711 32.2109 91.2158C32.5265 90.5422 32.5979 89.7673 32.4252 88.8912C32.4014 88.7736 32.375 88.6605 32.3459 88.552C32.1521 87.8288 31.8182 87.2478 31.344 86.809C31.0674 86.5576 30.77 86.4746 30.4518 86.5598C30.0757 86.6606 29.7409 86.9441 29.4472 87.4103C29.1623 87.851 29.0436 88.2471 29.0913 88.5986ZM29.9918 83.6718C31.1417 83.3636 32.1764 83.5515 33.096 84.2352C34.0155 84.9189 34.6701 85.9876 35.0596 87.4412C35.5188 89.1552 35.4846 90.7921 34.9569 92.3519C34.3542 94.0946 33.2791 95.1733 31.7315 95.588C31.4277 95.6694 31.108 95.7202 30.7724 95.7403C29.4863 95.8292 28.394 95.2963 27.4956 94.1419C26.8903 93.3584 26.4337 92.3918 26.1255 91.2419C26.048 90.9526 25.9794 90.6532 25.9197 90.3437C25.6111 88.7289 25.8117 87.3225 26.5216 86.1247C27.2224 84.9215 28.314 84.1213 29.7966 83.7241L29.9918 83.6718ZM45.9232 79.2286C47.3862 79.0768 48.9471 80.2592 50.6058 82.7757C51.0232 83.4079 51.6502 84.4607 52.4868 85.934C53.2074 87.2059 53.7368 88.0678 54.0749 88.5198C54.2416 89.1417 54.0646 89.5225 53.5439 89.662C53.3848 89.7046 53.1926 89.7251 52.9674 89.7234C52.1046 89.7144 51.4393 89.5167 50.9715 89.1305C50.454 88.7033 49.8724 87.9213 49.2267 86.7843C48.5438 85.5954 47.9846 84.7957 47.5491 84.3853C47.551 84.3925 47.5428 84.9838 47.5244 86.1592C47.5092 87.0856 47.465 87.861 47.392 88.4851C47.1724 90.4429 46.6445 91.5533 45.808 91.8162L45.7863 91.822C45.1138 92.0022 44.2833 91.0001 43.2949 88.8156C42.6141 87.316 42.2707 86.5554 42.2649 86.5337C41.9246 85.842 41.6568 85.5223 41.4615 85.5747C41.477 85.6325 41.3454 87.311 41.0668 90.6101C40.9812 91.6794 40.774 92.4248 40.4451 92.8462C40.2655 93.0726 40.0491 93.2198 39.796 93.2876C39.4417 93.3825 39.0121 93.3271 38.5074 93.1213L38.5183 93.1184C38.5544 93.1087 38.4795 92.7567 38.2935 92.0625C38.0357 91.1006 37.5645 89.4868 36.8799 87.2209L36.8712 87.1883C36.7878 86.8774 36.7894 86.5359 36.8757 86.164C36.9707 85.7664 36.9776 85.4158 36.8962 85.1121C36.7915 84.7216 36.9947 84.4385 37.5057 84.2628C38.1324 84.0561 38.4521 83.9472 38.4646 83.9361C38.6042 83.7049 38.7824 83.3432 38.9993 82.8511C39.2129 82.3753 39.3825 82.0392 39.5081 81.8427C39.7455 81.4846 40.0413 81.258 40.3957 81.1631C40.6922 81.0836 41.0329 81.097 41.4179 81.2031C41.9544 81.3539 42.6054 82.1057 43.371 83.4586C44.3274 85.1478 44.8399 86.0336 44.9085 86.116C44.9502 85.8955 44.9916 84.6327 45.0327 82.3273C45.0622 80.7304 45.359 79.6975 45.9232 79.2286ZM63.0046 74.6516C64.4677 74.4999 66.0285 75.6822 67.6872 78.1987C68.1046 78.831 68.7317 79.8838 69.5682 81.3571C70.2888 82.629 70.8182 83.4909 71.1563 83.9428C71.323 84.5648 71.146 84.9455 70.6253 85.085C70.4662 85.1277 70.274 85.1482 70.0488 85.1465C69.186 85.1374 68.5207 84.9397 68.0529 84.5535C67.5354 84.1263 66.9538 83.3443 66.3081 82.2074C65.6252 81.0184 65.066 80.2187 64.6305 79.8084C64.6324 79.8156 64.6242 80.4069 64.6059 81.5822C64.5906 82.5087 64.5464 83.284 64.4734 83.9082C64.2539 85.866 63.7259 86.9764 62.8895 87.2392L62.8678 87.245C62.1952 87.4253 61.3647 86.4231 60.3763 84.2386C59.6955 82.7391 59.3521 81.9784 59.3463 81.9567C59.006 81.2651 58.7382 80.9454 58.5429 80.9977C58.5584 81.0556 58.4268 82.7341 58.1482 86.0332C58.0626 87.1025 57.8554 87.8479 57.5265 88.2693C57.3469 88.4957 57.1305 88.6428 56.8774 88.7106C56.5231 88.8056 56.0935 88.7501 55.5888 88.5443L55.5997 88.5414C55.6358 88.5317 55.5609 88.1798 55.3749 87.4855C55.1171 86.5237 54.646 84.9098 53.9613 82.6439L53.9526 82.6114C53.8693 82.3004 53.8708 81.9589 53.9571 81.587C54.0522 81.1895 54.059 80.8389 53.9776 80.5351C53.8729 80.1446 54.0761 79.8615 54.5871 79.6858C55.2139 79.4791 55.5335 79.3703 55.546 79.3591C55.6856 79.128 55.8638 78.7663 56.0808 78.2741C56.2943 77.7983 56.4639 77.4622 56.5896 77.2658C56.8269 76.9076 57.1227 76.6811 57.4771 76.5861C57.7736 76.5067 58.1144 76.52 58.4993 76.6261C59.0358 76.7769 59.6868 77.5288 60.4524 78.8816C61.4088 80.5708 61.9213 81.4567 61.9899 81.539C62.0316 81.3186 62.073 80.0557 62.1142 77.7504C62.1436 76.1535 62.4404 75.1206 63.0046 74.6516ZM74.2142 78.1008C74.6771 77.9768 75.0131 77.7123 75.2225 77.3074C75.4178 76.9373 75.4781 76.5258 75.4033 76.0731C75.3911 75.9988 75.3754 75.9255 75.356 75.8532C75.263 75.5061 75.0938 75.222 74.8486 75.0009C74.5203 74.7013 74.1242 74.5827 73.6603 74.645C73.6005 74.6532 73.5453 74.6641 73.4947 74.6777C73.2054 74.7552 73.0132 74.9346 72.918 75.2159C72.8176 75.5063 72.8255 75.8685 72.9418 76.3024C73.2014 77.2715 73.6256 77.871 74.2142 78.1008ZM82.6078 74.8867C83.0311 74.3547 83.3765 74.0529 83.6441 73.9812C83.9117 73.9095 84.0998 74.0761 84.2083 74.4811C84.3622 75.7498 84.0227 77.2166 83.1899 78.8815C82.3744 80.4952 81.4226 81.6726 80.3345 82.4137C79.9257 82.624 79.508 82.7863 79.0813 82.9006C76.9624 83.4684 74.6881 82.7911 72.2585 80.8688C71.4321 80.2143 70.828 79.1748 70.4462 77.7501C70.2854 77.1498 70.1633 76.4772 70.08 75.7322C69.9303 74.3926 70.7295 73.2677 72.4777 72.3575C72.7153 72.2318 72.957 72.136 73.2029 72.0701C73.8755 71.8899 74.5628 71.9383 75.2648 72.2152C76.0619 72.5287 76.8263 73.1106 77.558 73.961C77.7991 74.3692 77.9711 74.7649 78.0738 75.1482C78.378 76.2836 78.0916 77.3409 77.2145 78.32C77.072 78.4822 76.8696 78.6527 76.6075 78.8315C76.313 79.0344 76.1371 79.159 76.0798 79.2054C75.9492 79.3256 75.9004 79.4472 75.9334 79.5702L75.9392 79.5919C75.9944 79.7398 76.1761 79.912 76.4846 80.1084C77.1381 80.5224 77.7939 80.6412 78.452 80.4649C78.64 80.4145 78.8294 80.3405 79.0203 80.2429C79.816 79.8281 80.5033 79.0084 81.082 77.7837C81.8628 76.156 82.3714 75.1904 82.6078 74.8867ZM95.1949 75.3624C95.5878 76.0478 95.8453 76.6182 95.9674 77.0738C96.0662 77.4427 96.0738 77.7313 95.9901 77.9397C95.8521 78.2635 95.5517 78.4874 95.0888 78.6114C94.908 78.6599 94.6997 78.6924 94.4639 78.7091C93.8201 78.7654 93.1334 78.1549 92.4036 76.8777C91.9696 76.1259 91.356 74.7905 90.5628 72.8715C90.0177 71.5603 89.6441 70.7303 89.4421 70.3813C88.5705 71.4675 88.0459 72.5615 87.8683 73.6632C87.7237 74.5701 87.806 75.6293 88.1151 76.8409C88.2474 77.3635 88.2074 78.0098 87.9952 78.7798C87.7522 79.6665 87.374 80.1787 86.8605 80.3163C86.4194 80.4345 85.9429 80.2327 85.4311 79.711C85.1206 79.3912 84.8491 78.7973 84.6165 77.9295C84.4053 77.1412 84.2266 76.1272 84.0805 74.8874C83.9533 73.8053 83.842 73.0717 83.7465 72.6865C83.5503 71.9252 83.5999 71.315 83.8955 70.856C84.1005 70.5221 84.4128 70.2989 84.8322 70.1865C84.9986 70.1419 85.1852 70.1152 85.3921 70.1062C85.8893 70.0815 86.186 70.1764 86.2822 70.3909C86.4531 70.0739 86.6507 69.5675 86.8751 68.8718C87.0821 68.2272 87.2603 67.7493 87.4094 67.438C87.5253 67.2054 87.7367 66.924 88.0435 66.5938C88.4612 66.1563 88.8616 65.8862 89.2449 65.7835C89.7077 65.6595 90.1031 65.79 90.431 66.1749C91.4014 67.3954 92.4943 69.4201 93.7096 72.2492C94.1497 73.2552 94.4875 74.0095 94.7229 74.5123C94.7984 74.6781 94.9557 74.9615 95.1949 75.3624ZM99.5362 72.618C99.9909 73.3023 100.627 73.5349 101.444 73.3159C101.574 73.2811 101.709 73.2334 101.847 73.1729C102.504 72.904 103.464 72.2477 104.727 71.204C106.049 70.1211 106.937 69.4724 107.391 69.2577C107.535 69.1881 107.668 69.1368 107.791 69.1038C108.413 68.9372 108.832 69.1853 109.049 69.8482C109.195 71.2895 107.725 73.1249 104.641 75.3543C103.615 76.0944 102.66 76.5827 101.778 76.8191C100.397 77.1892 99.185 76.948 98.1427 76.0957C97.3988 75.4889 96.8593 74.618 96.5242 73.4832L96.4545 73.2228C96.189 72.232 96.1135 71.1981 96.2279 70.1211C96.3567 68.9239 96.6945 67.8994 97.2414 67.0475C97.8239 66.1551 98.5599 65.5897 99.4494 65.3513L99.5253 65.331C100.35 65.1101 100.981 65.3092 101.418 65.9284C101.531 66.0918 101.609 66.253 101.652 66.4121C101.782 66.8966 101.606 67.3818 101.123 67.8675C100.135 68.8921 99.5458 69.5731 99.3572 69.9104C99.0275 70.5026 98.9441 71.1024 99.1069 71.7099C99.1863 72.0064 99.3294 72.3091 99.5362 72.618ZM109.621 68.6137C110.084 68.4896 110.42 68.2252 110.629 67.8203C110.824 67.4502 110.885 67.0387 110.81 66.5859C110.798 66.5117 110.782 66.4384 110.762 66.3661C110.669 66.0189 110.5 65.7348 110.255 65.5138C109.927 65.2142 109.531 65.0955 109.067 65.1578C109.007 65.1661 108.952 65.177 108.901 65.1906C108.612 65.2681 108.42 65.4475 108.324 65.7288C108.224 66.0192 108.232 66.3814 108.348 66.8153C108.608 67.7844 109.032 68.3838 109.621 68.6137ZM118.014 65.3996C118.438 64.8676 118.783 64.5658 119.051 64.4941C119.318 64.4224 119.506 64.589 119.615 64.994C119.769 66.2627 119.429 67.7295 118.596 69.3943C117.781 71.008 116.829 72.1855 115.741 72.9266C115.332 73.1369 114.914 73.2992 114.488 73.4135C112.369 73.9813 110.095 73.304 107.665 71.3816C106.839 70.7272 106.234 69.6876 105.853 68.263C105.692 67.6627 105.57 66.9901 105.486 66.2451C105.337 64.9055 106.136 63.7806 107.884 62.8703C108.122 62.7447 108.363 62.6489 108.609 62.583C109.282 62.4028 109.969 62.4512 110.671 62.7281C111.468 63.0416 112.233 63.6235 112.964 64.4739C113.206 64.8821 113.378 65.2778 113.48 65.6611C113.784 66.7965 113.498 67.8538 112.621 68.8329C112.478 68.9951 112.276 69.1656 112.014 69.3443C111.719 69.5472 111.544 69.6719 111.486 69.7182C111.356 69.8385 111.307 69.9601 111.34 70.083L111.346 70.1047C111.401 70.2527 111.583 70.4249 111.891 70.6213C112.545 71.0353 113.2 71.1541 113.858 70.9778C114.046 70.9274 114.236 70.8534 114.427 70.7557C115.223 70.341 115.91 69.5212 116.488 68.2965C117.269 66.6689 117.778 65.7032 118.014 65.3996ZM126.146 57.5353C126.551 57.4268 127.005 57.4718 127.508 57.6704C127.959 57.8517 128.228 58.1014 128.313 58.4196C128.334 58.4991 128.342 58.5862 128.336 58.6807C127.05 59.8392 126.084 61.2103 125.439 62.7939C124.725 64.5276 124.417 66.4125 124.513 68.4486C124.587 69.9402 124.338 70.7625 123.767 70.9156C123.521 70.9815 123.214 70.9203 122.846 70.7322C121.937 70.2626 121.022 69.132 120.1 67.3405C119.36 65.9109 118.798 64.4766 118.412 63.0375C118.392 62.4149 118.505 61.9544 118.751 61.656C118.871 61.5233 119.006 61.4365 119.158 61.3958C119.324 61.3513 119.504 61.3573 119.698 61.414C120.625 61.6926 121.388 62.7168 121.986 64.4865C121.99 63.3151 122.368 61.9929 123.121 60.5201C123.98 58.8403 124.982 57.8473 126.124 57.5411L126.146 57.5353ZM133.816 65.607C134.452 65.4365 135.013 65.4761 135.498 65.7258C135.929 65.9437 136.204 66.2769 136.324 66.7253C136.441 67.1592 136.368 67.5663 136.105 67.9467C135.818 68.3492 135.363 68.6339 134.741 68.8005C134.539 68.8548 134.318 68.8984 134.079 68.9315C133.69 68.958 133.347 68.833 133.048 68.5566C132.817 68.3316 132.66 68.0637 132.577 67.7527L132.545 67.6334C132.462 67.237 132.509 66.8639 132.687 66.5141C132.901 66.1 133.278 65.7977 133.816 65.607ZM130.481 44.8749C130.781 45.0969 131.012 45.5116 131.175 46.1191C131.307 46.6109 131.392 47.2196 131.432 47.9454C131.45 48.2738 131.464 48.4988 131.473 48.6203C131.613 50.04 131.891 51.5236 132.305 53.0712L132.459 53.6462C132.591 54.1071 132.703 54.5111 132.796 54.8582C132.889 55.2053 132.964 55.4992 133.02 55.7398C133.106 56.0889 133.19 56.4153 133.271 56.719C133.453 57.3988 133.63 57.9561 133.801 58.3909L134.003 58.9296C134.306 59.6855 134.532 60.3382 134.679 60.8878C134.782 61.2711 134.848 61.606 134.878 61.8924C134.963 63.017 134.65 63.6742 133.942 63.8641C133.573 63.963 133.2 63.9465 132.824 63.8148C132.418 63.66 132.09 63.3759 131.84 62.9624C131.52 62.4356 131.228 61.6769 130.962 60.6861C130.823 60.1654 130.692 59.5765 130.57 58.9193L130.657 59.024C130.504 58.282 130.295 57.4156 130.03 56.4248C129.881 55.868 129.715 55.2769 129.531 54.6516L129.219 53.5726C129.173 53.3991 129.041 53.0081 128.823 52.3997C128.311 50.9791 127.964 49.9288 127.782 49.249C127.743 49.1044 127.716 48.9759 127.702 48.8636C127.419 47.5207 127.488 46.4481 127.909 45.6455C128.154 45.2001 128.515 44.9134 128.992 44.7855L129.122 44.7507C129.729 44.6115 130.181 44.6529 130.481 44.8749Z" fill="#35A1A1"/>
<g clip-path="url(#clip1_598_354)">
<path d="M74.2092 2.80254C75.4679 35.8265 44.6382 58.8031 14.099 55.0264C15.1468 55.8472 16.1975 56.664 17.2434 57.4877C18.8608 58.7609 17.8219 62.0081 15.5785 61.4553C10.9536 60.3155 1.53626 56.461 1.61698 50.3787C1.64493 48.2286 3.05977 47.0423 4.6248 45.8413C8.48525 42.8787 12.9703 40.2318 17.3012 38.0141C19.2823 37.0006 20.8451 39.9796 19.1987 41.2948C15.9121 43.9214 10.9901 45.7811 8.14979 48.7669C7.99219 48.9317 7.86179 49.0954 7.74257 49.2578C22.2118 53.3824 38.3347 50.9691 50.6071 42.0678C63.4253 32.7719 70.1872 18.2891 71.6714 2.80664C71.8063 1.39831 74.1537 1.3402 74.2093 2.80251L74.2092 2.80254Z" fill="#6BC9C9"/>
</g>
</g>
<defs>
<clipPath id="clip0_598_354">
<rect width="158" height="102" fill="white"/>
</clipPath>
<clipPath id="clip1_598_354">
<rect width="74.2542" height="74.2542" fill="white" transform="matrix(0.132388 -0.991198 -0.991198 -0.132388 69.6006 72.4309)"/>
</clipPath>
</defs>
</svg>
