<svg width="158" height="102" viewBox="0 0 158 102" fill="none" xmlns="http://www.w3.org/2000/svg">
<g clip-path="url(#clip0_532_320)">
<path d="M18.4759 84.1996C18.8218 84.2464 19.0906 84.6278 19.2824 85.3438C19.3251 85.5029 19.3653 85.682 19.4032 85.8811C19.476 86.3267 19.5321 86.8542 19.5714 87.4638L19.5817 87.5889C19.6932 89.2488 19.5178 90.9662 19.0555 92.741C17.994 96.7925 16.1651 99.3249 13.5687 100.338C13.401 100.407 13.2303 100.464 13.0568 100.51C12.9194 100.547 12.78 100.577 12.6387 100.599C10.4839 100.975 8.38074 99.8373 6.32933 97.1857C4.87204 95.3051 3.78157 93.2604 3.05792 91.0514C2.96982 90.7805 2.88702 90.5004 2.80951 90.2111C2.69712 89.7917 2.5999 89.3565 2.51785 88.9057C2.35079 87.9351 2.26275 86.9123 2.25375 85.8373C2.2418 83.5074 2.68008 81.5995 3.56859 80.1135C4.3618 78.7925 5.4599 77.9441 6.86288 77.5682C7.03645 77.5217 7.21556 77.4814 7.40024 77.4474C7.48896 77.4314 7.58226 77.418 7.68015 77.4073C8.89524 77.198 10.1279 77.5459 11.3781 78.4511C12.5674 79.3028 13.3613 80.3419 13.7597 81.5684C13.7766 81.6026 13.7909 81.6414 13.8025 81.6848C13.8141 81.7282 13.8221 81.7725 13.8265 81.8179C13.9207 82.343 13.7664 82.9385 13.3635 83.6045C13.1551 83.9549 12.9207 84.165 12.6604 84.2348L12.5844 84.2551C12.4215 84.2833 12.2541 84.2661 12.0823 84.2036C11.5192 83.9824 10.9379 83.3747 10.3382 82.3805C10.2091 82.1593 10.1093 82.0039 10.0388 81.9143C9.47401 81.0502 8.86661 80.6781 8.21665 80.798C8.15685 80.8063 8.10165 80.8172 8.05102 80.8308C7.24105 81.0478 6.62342 81.7947 6.19814 83.0713C5.69164 84.5944 5.6132 86.3556 5.96284 88.3547C6.04682 88.8127 6.14914 89.2814 6.2698 89.7606L6.29596 89.8583C6.69127 91.3336 7.46265 92.9251 8.61011 94.633C10.0784 96.8439 11.4608 97.8377 12.7574 97.6143C12.81 97.6079 12.8616 97.598 12.9122 97.5844C13.3172 97.4759 13.7136 97.234 14.1013 96.8589C15.5609 95.4214 16.3107 92.434 16.3506 87.8966C15.6318 88.1357 14.7807 88.4452 13.7973 88.8249C13.6348 88.884 13.4148 88.9739 13.1371 89.0948C12.8812 89.2099 12.6484 89.2956 12.4386 89.3518C12.3446 89.377 12.2569 89.3966 12.1754 89.4107C12.0867 89.4267 12.0042 89.4372 11.928 89.4421C11.5432 89.4522 11.1685 89.3123 10.804 89.0224C10.4579 88.7431 10.2451 88.4552 10.1657 88.1587L10.1395 88.061C10.1215 87.9651 10.1181 87.8653 10.129 87.7616C10.1959 87.2011 10.6843 86.7098 11.5943 86.2876L12.0889 86.0505C13.8188 85.2459 15.2045 84.7041 16.2459 84.4251C16.4918 84.3592 16.7179 84.3063 16.9242 84.2665C17.5091 84.1641 18.0263 84.1418 18.4759 84.1996ZM25.0094 91.2852C25.4722 91.1612 25.8083 90.8967 26.0176 90.4918C26.2129 90.1217 26.2732 89.7102 26.1984 89.2575C26.1863 89.1832 26.1705 89.1099 26.1511 89.0376C26.0581 88.6905 25.889 88.4064 25.6437 88.1853C25.3154 87.8857 24.9193 87.7671 24.4554 87.8294C24.3956 87.8376 24.3404 87.8485 24.2898 87.8621C24.0005 87.9396 23.8083 88.119 23.7132 88.4003C23.6127 88.6908 23.6206 89.0529 23.7369 89.4868C23.9966 90.4559 24.4207 91.0554 25.0094 91.2852ZM33.403 88.0711C33.8262 87.5391 34.1717 87.2373 34.4393 87.1656C34.7068 87.0939 34.8949 87.2606 35.0034 87.6655C35.1573 88.9342 34.8179 90.401 33.985 92.0659C33.1695 93.6796 32.2177 94.857 31.1296 95.5981C30.7209 95.8084 30.3032 95.9707 29.8765 96.085C27.7575 96.6528 25.4833 95.9755 23.0537 94.0532C22.2272 93.3987 21.6231 92.3592 21.2414 90.9345C21.0805 90.3343 20.9584 89.6616 20.8751 88.9166C20.7254 87.577 21.5247 86.4521 23.2728 85.5419C23.5104 85.4162 23.7522 85.3204 23.998 85.2545C24.6706 85.0743 25.3579 85.1227 26.06 85.3996C26.8571 85.7131 27.6214 86.2951 28.3531 87.1454C28.5943 87.5536 28.7662 87.9493 28.8689 88.3326C29.1731 89.468 28.8867 90.5253 28.0096 91.5044C27.8671 91.6666 27.6647 91.8371 27.4026 92.0159C27.1082 92.2188 26.9323 92.3434 26.8749 92.3898C26.7444 92.51 26.6956 92.6316 26.7285 92.7546L26.7343 92.7763C26.7895 92.9243 26.9713 93.0964 27.2797 93.2928C27.9332 93.7068 28.589 93.8256 29.2471 93.6493C29.4351 93.5989 29.6246 93.5249 29.8154 93.4273C30.6112 93.0125 31.2984 92.1928 31.8771 90.9681C32.6579 89.3404 33.1665 88.3748 33.403 88.0711ZM44.9144 80.15C45.0993 80.3484 45.2199 80.5525 45.2761 80.7623C45.3207 80.9286 45.3262 81.0938 45.2926 81.2578C45.1622 81.9283 44.5295 82.5319 43.3944 83.0686C42.6916 83.3964 41.6 83.8207 40.1195 84.3414L39.6943 84.4902C39.7007 84.5428 39.7286 84.6903 39.7781 84.9328C39.8902 85.5539 39.9918 86.0344 40.0829 86.3742C40.1217 86.5189 40.1572 86.6372 40.1897 86.7293C40.4804 87.4963 40.7965 88.4735 41.138 89.6609L41.2688 90.1491C41.7125 91.8052 41.806 92.718 41.5491 92.8876C41.5463 92.9349 41.3641 93.0069 41.0025 93.1038C40.1274 93.3383 39.644 93.4291 39.5523 93.3761C38.786 92.9459 38.1325 91.7219 37.5918 89.7042C37.4271 89.0895 37.2748 88.4056 37.135 87.6524C37.1055 87.5131 37.0732 87.3783 37.0384 87.2482C36.8698 86.619 36.6313 86.2062 36.3229 86.0098C36.0511 85.8346 35.5573 85.8429 34.8413 86.0347L34.6461 86.087C34.5323 86.1253 34.4248 86.158 34.3235 86.1851C33.839 86.3149 33.4585 86.3704 33.1822 86.3514C32.6367 86.3115 32.1808 86.0423 31.8147 85.5435L31.7972 85.4784C31.7255 85.2109 31.7559 84.9625 31.8882 84.7332C32.1808 84.2053 32.8767 83.794 33.976 83.4995C34.2219 83.4336 34.4345 83.3882 34.6139 83.3634C34.7551 83.3411 34.8836 83.3144 34.9994 83.2834C35.2742 83.2097 35.5246 83.0884 35.7505 82.9193C35.408 81.988 35.1127 81.0595 34.8646 80.1338C34.6728 79.4178 34.5092 78.7059 34.3738 77.9981C33.9743 75.8418 33.9988 74.3277 34.4472 73.4557C34.6652 73.0252 34.9875 72.7528 35.4142 72.6385L35.5226 72.6094C35.6962 72.5629 35.8665 72.5909 36.0335 72.6935C36.4061 72.9269 36.7735 73.7198 37.1359 75.0722C37.3491 75.8677 37.5591 76.8539 37.7659 78.0309C37.9024 78.8005 37.998 79.302 38.0528 79.5353C38.1153 79.7976 38.2027 80.1385 38.3151 80.5579L38.661 81.8488C38.692 81.9645 38.9281 81.9633 39.3692 81.8451C39.4633 81.8199 39.5672 81.7882 39.6809 81.7499C40.3438 81.5335 41.1481 81.194 42.0938 80.7313C42.1405 80.7033 42.2448 80.6444 42.4068 80.5545C42.9789 80.2306 43.4276 80.0251 43.7531 79.9379C44.2737 79.7984 44.6609 79.8691 44.9144 80.15ZM67.541 62.6117C68.011 62.4857 68.5218 62.5117 69.0733 62.6894C69.5224 62.8326 69.7867 63.0525 69.8662 63.349C69.9069 63.5008 69.8989 63.6735 69.8422 63.867C69.6381 64.5805 69.0886 65.2199 68.1937 65.7853C67.7373 66.0781 66.9789 66.4441 65.9184 66.8833C65.8552 66.9079 65.7586 66.9377 65.6284 66.9726C65.4982 67.0075 65.3309 67.0484 65.1265 67.0954C64.5638 67.223 64.1957 67.31 64.0221 67.3565C63.0748 67.6103 62.5465 67.8953 62.4374 68.2113C62.2 68.8872 62.2847 69.9846 62.6917 71.5033L62.7149 71.59C62.8578 72.0943 63.0544 72.7121 63.3046 73.4435C63.6351 74.4168 63.8079 74.9169 63.8229 74.9439C65.0501 78.8007 65.785 81.1384 66.0276 81.957C66.0721 82.1233 66.1694 82.3996 66.3194 82.7857C66.4679 83.1954 66.5739 83.5042 66.6374 83.712L66.7042 83.9615C66.8786 84.6124 66.9072 85.124 66.79 85.4965C66.6395 85.9476 66.1878 86.3012 65.4348 86.5572L65.3806 86.5717C64.9973 86.6744 64.631 86.4354 64.2816 85.8547C64.2424 85.7954 64.0171 85.3016 63.6056 84.3732C62.8019 82.5888 61.9424 80.0752 61.027 76.8325C60.8977 76.3788 60.7526 75.8519 60.5917 75.2516C60.2158 73.8486 59.7533 72.0503 59.2043 69.8566L59.2014 69.8457C59.1161 69.5275 58.7552 69.3956 58.1187 69.4499C57.9157 69.4733 57.5049 69.5601 56.8863 69.7103L56.832 69.7249C56.5861 69.7908 56.1448 69.9516 55.508 70.2075C54.662 70.5505 54.0332 70.7926 53.6215 70.9339C53.338 71.0331 53.0698 71.1166 52.8166 71.1845C51.6306 71.5023 50.8319 71.4721 50.4206 71.094C50.1531 70.8479 49.9845 70.5947 49.9147 70.3343C49.7422 69.6907 50.217 69.0325 51.3389 68.3598C52.2488 67.8215 53.3382 67.3746 54.6072 67.0191C56.149 66.5827 58.307 65.8572 61.0813 64.8425C64.0451 63.7538 66.1983 63.0102 67.541 62.6117ZM83.7901 80.1391L83.8134 80.2259C83.9779 81.0422 83.7057 81.5453 82.997 81.7352C82.1943 81.9503 81.3094 81.8153 80.3423 81.3303C79.4035 80.6905 78.4436 79.3355 77.4626 77.2653C77.3045 76.9356 77.215 76.7464 77.1942 76.6977C77.1079 77.0696 77.0051 77.8142 76.8858 78.9313C76.7261 80.4468 76.567 81.5164 76.4086 82.1402C76.134 83.1982 75.7436 83.795 75.2374 83.9306C74.7094 84.0721 74.2068 83.9897 73.7295 83.6836C73.0171 83.2234 72.5388 82.5377 72.2946 81.6264C72.2559 81.4818 72.2234 81.3316 72.1972 81.1759C72.0281 80.198 71.685 78.7436 71.1676 76.8127C70.9926 76.131 70.8519 75.5912 70.7453 75.1935C70.2123 73.0885 69.8012 71.1059 69.512 69.2456C68.9856 65.8056 69.1093 63.982 69.8831 63.7746C70.0205 63.7378 70.1669 63.749 70.3222 63.8081C70.9069 63.9072 71.3925 64.6491 71.779 66.0338L71.7993 66.1097C72.0551 67.0643 72.3135 68.5492 72.5744 70.5643C72.6722 71.3055 72.7427 71.771 72.7858 71.961C73.0885 73.4378 73.4007 74.7765 73.7224 75.977C73.8658 76.5122 74.0087 77.0165 74.151 77.4899C74.4509 76.96 74.6393 76.0724 74.7165 74.827C74.7631 73.9309 74.8501 73.272 74.9774 72.8503C75.1815 72.1368 75.5696 71.56 76.1415 71.12C76.2687 71.0161 76.401 70.9458 76.5384 70.909C77.1676 70.7404 77.8402 71.2113 78.5563 72.3216C79.0747 73.1283 79.6798 74.3885 80.3715 76.1021C80.4852 76.3817 80.5534 76.5495 80.5761 76.6054C81.5853 78.4045 82.6301 79.5702 83.7105 80.1023L83.7901 80.1391ZM86.6598 74.766C87.1226 74.642 87.4587 74.3775 87.668 73.9727C87.8633 73.6025 87.9236 73.1911 87.8488 72.7383C87.8367 72.664 87.8209 72.5907 87.8015 72.5184C87.7085 72.1713 87.5394 71.8872 87.2941 71.6661C86.9658 71.3665 86.5697 71.2479 86.1058 71.3102C86.046 71.3185 85.9908 71.3294 85.9402 71.3429C85.6509 71.4204 85.4587 71.5998 85.3636 71.8811C85.2631 72.1716 85.271 72.5338 85.3873 72.9677C85.647 73.9367 86.0711 74.5362 86.6598 74.766ZM95.0534 71.5519C95.4766 71.02 95.8221 70.7181 96.0897 70.6464C96.3572 70.5747 96.5453 70.7414 96.6538 71.1464C96.8077 72.4151 96.4683 73.8818 95.6354 75.5467C94.8199 77.1604 93.8681 78.3378 92.78 79.0789C92.3713 79.2892 91.9536 79.4515 91.5269 79.5659C89.4079 80.1336 87.1337 79.4563 84.7041 77.534C83.8776 76.8796 83.2735 75.84 82.8918 74.4153C82.7309 73.8151 82.6089 73.1424 82.5255 72.3974C82.3758 71.0578 83.1751 69.9329 84.9232 69.0227C85.1608 68.897 85.4026 68.8012 85.6484 68.7354C86.321 68.5551 87.0083 68.6035 87.7104 68.8805C88.5075 69.194 89.2718 69.7759 90.0035 70.6262C90.2447 71.0344 90.4166 71.4302 90.5193 71.8135C90.8235 72.9489 90.5371 74.0061 89.66 74.9852C89.5175 75.1474 89.3151 75.3179 89.053 75.4967C88.7586 75.6996 88.5827 75.8242 88.5253 75.8706C88.3948 75.9909 88.346 76.1124 88.3789 76.2354L88.3847 76.2571C88.4399 76.4051 88.6217 76.5773 88.9301 76.7737C89.5836 77.1877 90.2394 77.3065 90.8975 77.1301C91.0855 77.0798 91.275 77.0057 91.4658 76.9081C92.2616 76.4933 92.9488 75.6736 93.5275 74.4489C94.3083 72.8212 94.8169 71.8556 95.0534 71.5519ZM116.385 59.6391C116.284 59.4338 116.115 59.0915 115.878 58.6124C114.884 56.5533 114.127 55.2757 113.607 54.7796C113.408 55.6002 113.207 57.2508 113.003 59.7314C112.939 60.5316 112.891 61.0754 112.859 61.3629C113.186 61.2212 113.698 60.9637 114.396 60.5906C115.291 60.1106 115.954 59.7934 116.385 59.6391ZM125.922 66.0712C126.675 66.567 127.197 66.9814 127.487 67.3143C127.754 67.6149 127.932 67.9316 128.021 68.2642C128.095 68.539 128.105 68.8231 128.052 69.1164C127.967 69.5809 127.736 69.8636 127.36 69.9643C126.709 70.1387 125.663 69.6751 124.22 68.5733C123.332 67.8891 122.669 67.3109 122.233 66.8388C121.872 66.4471 121.35 65.8312 120.668 64.9909C119.93 64.088 119.37 63.4318 118.989 63.0223C118.642 62.6504 118.041 62.5788 117.188 62.8074C117.014 62.8539 116.771 62.9307 116.459 63.0376C116.238 63.1122 116.085 63.161 115.998 63.1843C115.151 63.4347 113.934 63.9427 112.349 64.7086C111.304 68.3293 110.634 70.4854 110.338 71.1769C109.84 72.3258 109.316 72.9739 108.766 73.1212C108.622 73.1599 108.478 73.1714 108.334 73.1557C108.108 73.1231 107.931 73.0117 107.802 72.8214C107.752 72.7496 107.712 72.6558 107.681 72.5401C107.512 71.9109 107.646 70.6192 108.084 68.665C108.377 67.3852 108.496 66.644 108.442 66.4415L108.436 66.4198C108.411 66.3567 108.312 66.3483 108.138 66.3948C108.03 66.4239 107.85 66.4914 107.6 66.5973C107.349 66.7032 107.166 66.7717 107.05 66.8027C106.775 66.8763 106.562 66.8481 106.411 66.7181C106.339 66.6521 106.29 66.5685 106.263 66.4673C106.232 66.3515 106.229 66.2126 106.256 66.0506C106.341 65.4153 106.523 64.9092 106.802 64.5322C107.044 64.2194 107.458 63.8719 108.046 63.4897C109.065 62.8369 109.775 60.7165 110.178 57.1283C110.192 56.9773 110.218 56.6682 110.255 56.2008C110.366 54.5898 110.525 53.3885 110.731 52.5969C111.091 51.1906 111.677 50.3707 112.491 50.1373C114.11 49.7032 115.332 50.4146 116.155 52.2713C117.122 54.4617 118.131 56.3616 119.182 57.9712C119.245 58.0627 119.328 58.1957 119.429 58.3702C119.634 58.7336 119.805 58.9514 119.941 59.0235C120.044 59.089 120.189 59.0966 120.377 59.0462C120.435 59.0307 120.495 59.0106 120.559 58.9859C120.651 58.9535 120.786 58.894 120.964 58.8075C121.321 58.6344 121.597 58.5217 121.792 58.4694C122.277 58.3395 122.699 58.3969 123.059 58.6415C123.248 58.769 123.367 58.9232 123.416 59.104C123.439 59.1908 123.445 59.286 123.434 59.3898C123.39 60.0062 122.785 60.6838 121.618 61.4226L121.808 61.6972C123.214 63.615 124.36 64.916 125.249 65.6003C125.376 65.698 125.6 65.855 125.922 66.0712ZM131.098 62.7542C131.336 63.4112 131.496 63.8916 131.577 64.1954L131.618 64.3473C132.356 64.0951 132.95 63.6184 133.397 62.9171C133.836 62.2105 134.014 61.4575 133.931 60.6579C133.926 60.5818 133.915 60.5111 133.898 60.446C133.82 60.1567 133.654 59.9262 133.398 59.7543C132.989 59.4688 132.437 59.3491 131.744 59.3953C131.447 59.413 131.186 59.4519 130.962 59.512C130.716 59.5779 130.519 59.6693 130.372 59.7861C130.307 59.9743 130.355 60.3721 130.518 60.9796C130.642 61.4425 130.835 62.034 131.098 62.7542ZM136.624 58.7738C136.882 59.1 137.063 59.4584 137.168 59.8489C137.447 60.8903 137.179 62.1479 136.365 63.6218C135.564 65.0609 134.548 66.085 133.316 66.6942C132.837 66.9311 132.571 67.1226 132.517 67.2688C132.484 67.3474 132.496 67.4952 132.554 67.7122C132.585 67.8279 132.629 67.9634 132.687 68.1186C132.833 68.5211 132.944 68.8634 133.02 69.1455L133.135 69.5331C133.818 71.9933 134.439 73.9198 134.998 75.3124C135.028 75.3973 135.054 75.4794 135.075 75.559C135.155 75.8555 135.142 76.1109 135.037 76.3251C134.921 76.5577 134.707 76.7157 134.396 76.799C133.97 76.9134 133.441 76.8805 132.812 76.7004C132.199 76.5236 131.65 75.88 131.167 74.7694C130.915 74.1779 130.628 73.2783 130.304 72.0706L130.007 70.9641C129.107 67.9809 128.41 65.5672 127.916 63.723C127.405 61.8138 127.11 60.513 127.033 59.8205C126.854 58.8919 126.837 58.2493 126.982 57.8927C127.087 57.6476 127.32 57.4765 127.681 57.3797L127.996 57.2954C129.457 56.9039 130.999 56.8008 132.622 56.986C134.53 57.1954 135.864 57.7914 136.624 58.7738ZM142.539 59.6887C142.777 60.3458 142.936 60.8262 143.018 61.1299L143.058 61.2818C143.797 61.0296 144.39 60.5529 144.838 59.8516C145.276 59.145 145.454 58.392 145.372 57.5925C145.367 57.5163 145.356 57.4456 145.338 57.3805C145.261 57.0913 145.094 56.8607 144.839 56.6888C144.429 56.4033 143.878 56.2837 143.185 56.3298C142.887 56.3475 142.626 56.3864 142.402 56.4465C142.156 56.5124 141.96 56.6038 141.813 56.7207C141.747 56.9088 141.796 57.3066 141.958 57.9141C142.082 58.377 142.276 58.9685 142.539 59.6887ZM148.064 55.7083C148.322 56.0345 148.504 56.3929 148.608 56.7834C148.887 57.8248 148.62 59.0824 147.805 60.5563C147.005 61.9954 145.989 63.0195 144.757 63.6287C144.278 63.8656 144.011 64.0571 143.958 64.2033C143.924 64.282 143.937 64.4298 143.995 64.6467C144.026 64.7624 144.07 64.8979 144.127 65.0531C144.274 65.4556 144.385 65.7979 144.46 66.08L144.576 66.4676C145.258 68.9278 145.879 70.8543 146.438 72.2469C146.469 72.3318 146.495 72.414 146.516 72.4935C146.595 72.79 146.583 73.0454 146.477 73.2597C146.361 73.4923 146.148 73.6502 145.837 73.7335C145.41 73.8479 144.882 73.815 144.252 73.6349C143.639 73.4581 143.091 72.8145 142.607 71.7039C142.356 71.1124 142.068 70.2128 141.745 69.0051L141.448 67.8986C140.548 64.9154 139.851 62.5017 139.357 60.6575C138.845 58.7483 138.551 57.4475 138.474 56.755C138.295 55.8264 138.278 55.1838 138.422 54.8272C138.527 54.5821 138.76 54.4111 139.122 54.3142L139.437 54.2299C140.897 53.8384 142.439 53.7353 144.062 53.9205C145.971 54.1299 147.305 54.7259 148.064 55.7083ZM154.115 60.1678C154.751 59.9973 155.312 60.0369 155.798 60.2866C156.228 60.5045 156.504 60.8377 156.624 61.2861C156.74 61.72 156.667 62.1271 156.405 62.5075C156.117 62.91 155.662 63.1947 155.04 63.3613C154.838 63.4156 154.617 63.4592 154.378 63.4923C153.99 63.5188 153.646 63.3938 153.347 63.1174C153.117 62.8924 152.96 62.6245 152.876 62.3135L152.844 62.1942C152.761 61.7978 152.809 61.4247 152.986 61.0749C153.201 60.6608 153.577 60.3585 154.115 60.1678ZM150.781 39.4357C151.08 39.6577 151.312 40.0724 151.474 40.6799C151.606 41.1717 151.692 41.7804 151.731 42.5062C151.749 42.8346 151.763 43.0596 151.773 43.1811C151.913 44.6008 152.19 46.0844 152.605 47.632L152.759 48.207C152.89 48.6679 153.002 49.0719 153.095 49.419C153.188 49.7661 153.263 50.06 153.32 50.3006C153.406 50.6497 153.489 50.9761 153.57 51.2798C153.753 51.9596 153.929 52.5169 154.1 52.9517L154.302 53.4904C154.606 54.2463 154.831 54.899 154.978 55.4486C155.081 55.8319 155.147 56.1668 155.178 56.4532C155.262 57.5778 154.95 58.235 154.241 58.4249C153.872 58.5238 153.5 58.5073 153.123 58.3756C152.717 58.2208 152.389 57.9367 152.139 57.5232C151.82 56.9964 151.527 56.2377 151.262 55.2469C151.122 54.7262 150.992 54.1373 150.87 53.4801L150.956 53.5849C150.804 52.8428 150.595 51.9764 150.329 50.9856C150.18 50.4288 150.014 49.8377 149.831 49.2124L149.518 48.1334C149.472 47.9599 149.34 47.5689 149.123 46.9605C148.61 45.5399 148.263 44.4896 148.081 43.8098C148.042 43.6652 148.016 43.5367 148.001 43.4244C147.719 42.0815 147.788 41.0089 148.208 40.2063C148.453 39.7609 148.814 39.4742 149.292 39.3463L149.422 39.3115C150.028 39.1723 150.481 39.2137 150.781 39.4357Z" fill="#35A1A1"/>
<g clip-path="url(#clip1_532_320)">
<path d="M74.2092 2.80254C75.4679 35.8265 44.6382 58.8031 14.099 55.0264C15.1468 55.8472 16.1975 56.664 17.2434 57.4877C18.8608 58.7609 17.8219 62.0081 15.5785 61.4553C10.9536 60.3155 1.53626 56.461 1.61698 50.3787C1.64493 48.2286 3.05977 47.0423 4.6248 45.8413C8.48525 42.8787 12.9703 40.2318 17.3012 38.0141C19.2823 37.0006 20.8451 39.9796 19.1987 41.2948C15.9121 43.9214 10.9901 45.7811 8.14979 48.7669C7.99219 48.9317 7.86179 49.0954 7.74257 49.2578C22.2118 53.3824 38.3347 50.9691 50.6071 42.0678C63.4253 32.7719 70.1872 18.2891 71.6714 2.80664C71.8063 1.39831 74.1537 1.3402 74.2093 2.80251L74.2092 2.80254Z" fill="#6BC9C9"/>
</g>
</g>
<defs>
<clipPath id="clip0_532_320">
<rect width="158" height="102" fill="white"/>
</clipPath>
<clipPath id="clip1_532_320">
<rect width="74.2542" height="74.2542" fill="white" transform="matrix(0.132388 -0.991198 -0.991198 -0.132388 69.6006 72.4309)"/>
</clipPath>
</defs>
</svg>
