<svg width="150" height="150" viewBox="0 0 150 150" fill="none" xmlns="http://www.w3.org/2000/svg">
<path fill-rule="evenodd" clip-rule="evenodd" d="M73.9338 69.2388L54.3754 49.6804C53.0787 48.3836 50.9783 48.3836 49.6815 49.6804C48.3848 50.9771 48.3848 53.0775 49.6815 54.3743L69.2399 73.9327C70.1044 74.7972 70.1044 76.202 69.2399 77.0665L49.6815 96.6249C48.3848 97.9216 48.3848 100.022 49.6815 101.319C50.9783 102.615 53.0787 102.615 54.3754 101.319L73.9338 81.7604C74.7983 80.8959 76.2031 80.8959 77.0676 81.7604L96.626 101.319C97.9228 102.615 100.023 102.615 101.32 101.319C102.617 100.022 102.617 97.9216 101.32 96.6249L81.7615 77.0665C80.897 76.202 80.897 74.7972 81.7615 73.9327L101.32 54.3743C102.617 53.0775 102.617 50.9771 101.32 49.6804C100.023 48.3836 97.9228 48.3836 96.626 49.6804L77.0676 69.2388C76.2031 70.1033 74.7983 70.1033 73.9338 69.2388Z" fill="#AB6C0D"/>
<path d="M32.4641 118.536C56.2309 142.303 94.7685 142.303 118.535 118.536C142.302 94.7691 142.302 56.2316 118.535 32.4648C94.7685 8.698 56.2309 8.698 32.4641 32.4648C8.69731 56.2316 8.69731 94.7691 32.4641 118.536ZM27.7702 123.23C1.40993 96.8695 1.40993 54.1305 27.7702 27.7702C54.1305 1.40993 96.8695 1.40993 123.23 27.7702C149.59 54.1305 149.59 96.8695 123.23 123.23C96.8695 149.59 54.1305 149.59 27.7702 123.23Z" fill="#AB6C0D"/>
</svg>
