<svg width="150" height="150" viewBox="0 0 150 150" fill="none" xmlns="http://www.w3.org/2000/svg">
<path fill-rule="evenodd" clip-rule="evenodd" d="M102.083 2.61602C112.041 11.3418 124.637 16.4879 137.856 17.2252C139.075 17.2966 140.055 18.2582 140.151 19.4769H140.155C141.364 35.3572 137.666 48.6527 131.468 59.1879C123.765 72.2738 112.189 81.0664 101.334 85.2415H101.329C100.768 85.4557 100.139 85.4557 99.5775 85.232C88.7334 81.0524 77.1567 72.2594 69.4634 59.1833C63.2654 48.6534 59.5713 35.3525 60.7757 19.4723C60.8709 18.2107 61.9182 17.2302 63.1845 17.2206C69.7158 16.8398 76.1376 15.3879 82.1979 12.9124C88.2864 10.4227 93.9179 6.9382 98.8642 2.60151C99.7877 1.79225 101.169 1.802 102.083 2.61602ZM7.69431 98.0329C3.56235 100.056 1.8343 105.031 3.82887 109.177L19.909 142.31C21.9322 146.437 26.902 148.165 31.0482 146.175L39.3312 142.152V142.157C43.1824 140.272 44.9865 135.783 43.5156 131.756L48.2855 129.542C52.0224 127.848 60.8242 129.999 68.6029 131.899C72.3493 132.813 75.8719 133.674 78.6805 134.065C90.4338 135.693 94.6558 132.779 104.41 126.905C129.559 111.757 142.964 100.761 143.973 99.7521C147.015 96.7103 148.163 93.516 147.982 90.6027C147.51 82.891 138.09 78.192 130.139 81.8055V81.8103C130.082 81.8341 130.03 81.8627 129.978 81.8912C118.576 88.1653 106.037 101.447 93.7702 104.189H93.775C95.722 101.152 96.0028 97.3435 94.5319 94.0588C93.0228 90.6647 89.5811 87.4801 83.4736 85.5759L66.2845 81.006C59.6533 79.7541 53.8835 80.9298 47.5526 84.5381L26.1787 96.3867C23.7509 93.3021 19.5094 92.3167 15.9725 94.0161L7.69431 98.0329ZM17.7862 101.551C23.6272 101.551 26.5785 108.648 22.4418 112.785C18.3051 116.922 11.2073 113.975 11.2073 108.13V108.134C11.2073 104.502 14.154 101.556 17.7861 101.556L17.7862 101.551ZM18.9953 106.93C19.3952 107.33 19.5713 107.906 19.4571 108.468C19.3476 109.025 18.9668 109.491 18.4384 109.71C17.9147 109.924 17.3149 109.867 16.8389 109.553C16.3676 109.234 16.082 108.706 16.082 108.134C16.082 107.444 16.4962 106.82 17.134 106.559C17.7719 106.297 18.5051 106.44 18.9953 106.93ZM84.5698 108.996C75.5203 107.363 70.4127 105.407 62.8583 103.312C61.573 102.95 60.8256 101.617 61.1779 100.327C61.5349 99.042 62.863 98.2851 64.1531 98.6279C66.3238 99.2325 68.0708 99.7561 69.7989 100.275C74.5496 101.698 79.191 103.084 85.3123 104.198C86.9642 104.098 88.4827 103.26 89.4443 101.908C90.7153 100.218 90.9676 97.9663 90.0964 96.0337C89.1015 93.7963 86.6213 91.6351 82.0324 90.207L65.2954 85.7657C62.9628 85.2991 60.5636 85.2563 58.2167 85.6371C55.6938 86.0608 52.9898 87.0319 49.9528 88.7647L28.4692 100.67L41.4271 127.361L46.2875 125.105C53.8136 121.696 70.1706 127.975 79.3483 129.246C89.3784 130.636 93.1861 127.98 101.898 122.734C127.238 107.481 139.148 97.4896 140.523 96.3087L140.528 96.304C143.142 93.6619 144.027 90.7534 142.099 88.2352L142.104 88.2304C141.414 87.3593 140.519 86.6642 139.5 86.2072C137.182 85.1504 134.516 85.1552 132.202 86.2215C128.18 88.454 123.967 91.6245 119.644 94.8759C108.662 103.135 97.004 111.899 84.5652 109.005V109L84.5698 108.996ZM38.1611 131.765L38.8228 133.127H38.818C39.6558 134.855 38.9418 136.93 37.2185 137.778L29.0926 141.724C27.0742 142.657 25.2176 142.014 24.2132 140.034L8.20864 107.063C7.37082 105.335 8.08488 103.26 9.80812 102.413L18.0864 98.3948C19.8145 97.557 21.8947 98.271 22.7373 99.9943L38.1611 131.765ZM109.829 34.5875L96.7709 47.6454L91.1061 41.9806C90.6491 41.5045 90.0255 41.2379 89.3686 41.2284C88.7164 41.2237 88.0833 41.4807 87.6215 41.9425C87.155 42.4042 86.8979 43.0374 86.9075 43.6943C86.9122 44.3465 87.1836 44.9749 87.6596 45.4271L95.0524 52.8199L95.0477 52.8152C95.9997 53.7672 97.5421 53.7672 98.4941 52.8152L113.275 38.0341C113.742 37.5819 114.008 36.9583 114.013 36.3061C114.018 35.6539 113.761 35.0255 113.299 34.5638C112.837 34.102 112.214 33.845 111.561 33.8497C110.909 33.8545 110.286 34.121 109.829 34.5875ZM100.465 20.9349C94.429 20.9349 88.6357 23.3342 84.3704 27.6042C80.1004 31.8743 77.7011 37.6676 77.7011 43.7039C77.7011 49.74 80.1004 55.5333 84.3704 59.8035C88.6404 64.0688 94.429 66.468 100.465 66.468C106.506 66.468 112.295 64.0688 116.565 59.7987C120.835 55.5287 123.234 49.7401 123.234 43.704C123.234 37.6631 120.835 31.8745 116.565 27.6044C112.295 23.3343 106.506 20.9349 100.465 20.9349ZM113.118 31.0507C109.762 27.6947 105.211 25.8095 100.465 25.8095C95.7238 25.8095 91.1729 27.6947 87.8167 31.0507C84.4607 34.4068 82.5756 38.9577 82.5756 43.704C82.5756 48.45 84.4607 53.001 87.8167 56.3524C91.1728 59.7084 95.7237 61.5936 100.465 61.5936C105.211 61.5936 109.762 59.7084 113.118 56.3524C116.474 53.0011 118.36 48.4501 118.36 43.704C118.36 38.9579 116.474 34.407 113.118 31.0507ZM116.908 17.4079C110.971 14.9849 105.426 11.6812 100.466 7.61579C90.5069 15.775 78.33 20.7638 65.5049 21.9252C64.8385 35.8069 68.1945 47.4499 73.6547 56.7287C80.5476 68.444 90.7731 76.4075 100.465 80.3645C110.157 76.4086 120.383 68.4397 127.275 56.7287C132.736 47.4507 136.092 35.8069 135.425 21.9252C129.065 21.3492 122.819 19.8261 116.908 17.4079Z" fill="#AC6D0E"/>
</svg>
