<svg width="150" height="150" viewBox="0 0 150 150" fill="none" xmlns="http://www.w3.org/2000/svg">
<path d="M39.6662 11C17.7335 11 3 28.7338 3 48.4879C3 66.9882 13.6914 82.9097 26.6905 95.4458C39.6815 107.982 55.1396 117.299 65.7666 122.681C66.7088 123.16 67.8187 123.16 68.7528 122.681C71.0444 121.523 73.6154 120.126 76.2743 118.617C82.5183 131.009 95.3175 139.521 110.105 139.521C130.994 139.521 148 122.514 148 101.626C148 86.9906 139.688 74.2627 127.504 67.9466C130.027 61.8464 131.52 55.3389 131.52 48.4883C131.52 28.7344 116.789 11.0004 94.8625 11.0004C82.1509 11.0004 73.543 17.3081 67.2596 25.8277C60.9838 17.3081 52.3695 11 39.6662 11ZM39.6662 17.5874C51.9783 17.5874 58.6374 23.5758 64.4339 33.0853C65.0248 34.0914 66.1027 34.6982 67.2604 34.6982C68.4262 34.6982 69.4962 34.0914 70.0949 33.0853C75.8837 23.5758 82.5428 17.5874 94.8627 17.5874C113.307 17.5874 124.933 31.9196 124.933 48.4873C124.933 54.3639 123.607 60.009 121.38 65.4226C117.818 64.3128 114.018 63.7219 110.105 63.7219C89.209 63.7219 72.2025 80.729 72.2025 101.625C72.2025 105.369 72.7295 109.011 73.7515 112.436C71.4839 113.721 69.336 114.887 67.3161 115.941C57.1757 110.679 43.0593 102.072 31.2733 90.7093C18.9851 78.8602 9.59617 64.4249 9.59617 48.4874C9.59617 31.9194 21.2217 17.5874 39.6662 17.5874ZM110.106 70.3177C127.433 70.3177 141.405 84.2906 141.405 101.624C141.405 118.951 127.432 132.931 110.106 132.931C92.7716 132.931 78.7995 118.95 78.7995 101.624C78.7995 84.2898 92.7724 70.3177 110.106 70.3177ZM109.739 78.5019C108.046 78.6935 106.769 80.1467 106.809 81.8474V101.625C106.809 102.575 107.224 103.47 107.942 104.092L121.125 115.63C122.498 116.82 124.59 116.676 125.78 115.295C126.977 113.913 126.826 111.829 125.444 110.632L113.396 100.076V81.8473C113.42 80.9051 113.028 79.9869 112.326 79.348C111.631 78.7092 110.689 78.3981 109.739 78.5019Z" fill="#AB6C0D"/>
</svg>
