<svg width="150" height="150" viewBox="0 0 150 150" fill="none" xmlns="http://www.w3.org/2000/svg">
<path d="M75 5C36.3913 5 5 36.3913 5 75C5 113.609 36.3913 145 75 145C113.609 145 145 113.609 145 75C145 36.3913 113.609 5 75 5ZM122.599 118.767L92.243 88.5588L88.5597 92.2421L118.767 122.45C107.272 133.207 91.9457 139.693 74.9998 139.693C39.336 139.693 10.3072 110.663 10.3072 75.0002C10.3072 58.0543 16.9407 42.7282 27.5502 31.2325L57.7579 61.4403L61.4412 57.757L31.2335 27.4008C42.7285 16.7918 58.0552 10.3063 75.0011 10.3063C110.665 10.3063 139.694 39.3363 139.694 74.9988C139.694 91.9448 133.209 107.271 122.599 118.767Z" fill="#AB6C0D"/>
<path d="M100.937 30.6437C99.9072 29.6139 98.2837 29.6139 97.2539 30.6437C96.224 31.6736 96.224 33.2971 97.2539 34.327L100.937 38.0102L92.2439 46.7034L84.729 39.1886C83.6992 38.1587 82.0756 38.1587 81.0458 39.1886C80.016 40.2184 80.0159 41.8419 81.0458 42.8718L82.9617 44.7877L51.1306 76.6187C48.4772 79.2721 48.1849 83.5445 50.3931 86.4902L45.6754 91.2078C44.6455 92.2377 44.6455 93.8612 45.6754 94.8911L48.4772 97.6929L35.6552 110.515C34.6253 111.545 34.6253 113.168 35.6552 114.198C36.0959 114.639 36.8335 114.936 37.5711 114.936C38.3087 114.936 38.8977 114.639 39.487 114.198L52.309 101.376L55.1108 104.178C55.5515 104.619 56.289 104.915 57.0266 104.915C57.7643 104.915 58.3533 104.619 58.9425 104.178L63.8041 99.3163C65.1307 100.346 66.7498 100.791 68.2248 100.791C70.1407 100.791 72.0565 100.054 73.5316 98.5787L105.363 66.7476L107.279 68.6635C107.719 69.1042 108.457 69.401 109.194 69.401C109.932 69.401 110.521 69.1042 111.11 68.6635C112.14 67.6336 112.14 66.0101 111.11 64.9802L103.595 57.4654L112.289 48.7722L115.823 52.307C116.264 52.7477 117.002 53.0446 117.739 53.0446C118.477 53.0446 119.066 52.7477 119.655 52.307C120.685 51.2771 120.685 49.6536 119.655 48.6238L100.937 30.6437ZM56.877 98.8719L51.1295 93.1244L54.0752 90.3226L59.8227 96.0701L56.877 98.8719ZM69.6944 95.1887C68.8084 96.0746 67.3378 96.0746 66.4519 95.1887L54.8088 83.5456C53.9228 82.6596 53.9228 81.189 54.8088 80.3031L56.8731 78.2388L62.4722 83.8379C62.9129 84.2786 63.6504 84.5755 64.388 84.5755C65.1257 84.5755 65.7147 84.2786 66.3039 83.8379C67.3338 82.808 67.3338 81.1845 66.3039 80.1547L60.7048 74.5556L64.388 70.8724L69.9871 76.4715C70.4279 76.9122 71.1654 77.209 71.903 77.209C72.6407 77.209 73.2297 76.9122 73.8189 76.4715C74.8488 75.4416 74.8488 73.8181 73.8189 72.7882L68.2198 67.1891L71.903 63.5059L77.5021 69.105C77.9428 69.5457 78.6804 69.8425 79.418 69.8425C80.1555 69.8425 80.7446 69.5457 81.3339 69.105C82.3637 68.0751 82.3637 66.4516 81.3339 65.4218L75.7348 59.8227L79.418 56.1394L85.0171 61.7385C85.4578 62.1793 86.1953 62.4761 86.933 62.4761C87.6706 62.4761 88.2596 62.1793 88.8488 61.7385C89.8787 60.7087 89.8787 59.0851 88.8488 58.0553L83.2497 52.4562L86.933 48.773L101.527 63.3576L69.6944 95.1887ZM99.7582 54.2232L95.9266 50.3916L104.62 41.6984L108.451 45.53L99.7582 54.2232Z" fill="#AB6C0D"/>
</svg>
