<svg width="150" height="150" viewBox="0 0 150 150" fill="none" xmlns="http://www.w3.org/2000/svg">
<g id="Qualify - Insurance">
<path id="Vector" fill-rule="evenodd" clip-rule="evenodd" d="M100.561 5.87301C110.137 14.2639 122.25 19.2125 134.961 19.9214C136.133 19.9901 137.076 20.9148 137.167 22.0867H137.172C138.335 37.3574 134.778 50.1426 128.818 60.2734C121.411 72.857 110.279 81.3121 99.8409 85.3269H99.8363C99.2961 85.5329 98.6919 85.5329 98.1517 85.3178C87.7239 81.2986 76.5915 72.8432 69.1935 60.269C63.2335 50.1433 59.6812 37.353 60.8393 22.0822C60.9309 20.8691 61.938 19.9262 63.1557 19.917C69.4362 19.5508 75.6115 18.1546 81.4392 15.7742C87.2941 13.38 92.7094 10.0293 97.4658 5.85905C98.3539 5.08085 99.6817 5.09023 100.561 5.87301ZM9.79537 97.6273C5.82201 99.5728 4.16029 104.356 6.0783 108.344L21.5412 140.204C23.4867 144.173 28.2658 145.835 32.2528 143.922L40.218 140.053V140.058C43.9213 138.245 45.6562 133.928 44.2417 130.056L48.8285 127.927C52.422 126.298 60.886 128.367 68.366 130.193C71.9686 131.072 75.356 131.901 78.0569 132.276C89.359 133.841 93.419 131.04 102.799 125.391C126.983 110.825 139.873 100.251 140.844 99.2806C143.769 96.3555 144.872 93.2839 144.698 90.4824C144.245 83.0666 135.186 78.548 127.541 82.0228V82.0274C127.486 82.0503 127.435 82.0778 127.385 82.1052C116.421 88.1385 104.363 100.91 92.5674 103.547H92.5719C94.4442 100.626 94.7142 96.9644 93.2998 93.8058C91.8486 90.5419 88.539 87.4796 82.6659 85.6485L66.1367 81.254C59.76 80.0501 54.2117 81.1807 48.1238 84.6506L27.5702 96.0443C25.2356 93.0781 21.1569 92.1305 17.7558 93.7647L9.79537 97.6273ZM19.4999 101.01C25.1167 101.01 27.9547 107.835 23.9768 111.813C19.9989 115.791 13.1735 112.958 13.1735 107.337V107.341C13.1735 103.848 16.0071 101.015 19.4998 101.015L19.4999 101.01ZM20.6626 106.183C21.0472 106.567 21.2165 107.121 21.1067 107.661C21.0014 108.197 20.6352 108.646 20.127 108.856C19.6235 109.062 19.0467 109.007 18.589 108.705C18.1358 108.398 17.8611 107.89 17.8611 107.341C17.8611 106.677 18.2594 106.078 18.8728 105.826C19.4862 105.574 20.1912 105.711 20.6626 106.183ZM83.7201 108.17C75.0179 106.6 70.1064 104.718 62.8419 102.704C61.6059 102.356 60.8872 101.074 61.226 99.8337C61.5694 98.5977 62.8465 97.8699 64.087 98.1995C66.1744 98.7809 67.8544 99.2844 69.5161 99.7834C74.0845 101.152 78.5478 102.484 84.4341 103.555C86.0226 103.459 87.4828 102.654 88.4074 101.354C89.6297 99.7286 89.8723 97.5633 89.0346 95.7048C88.0778 93.5534 85.6929 91.4751 81.2801 90.1019L65.1855 85.831C62.9424 85.3824 60.6354 85.3412 58.3786 85.7074C55.9524 86.1148 53.3523 87.0486 50.4318 88.7149L29.7729 100.163L42.2334 125.83L46.9072 123.66C54.1445 120.382 69.8736 126.42 78.699 127.643C88.3441 128.979 92.0056 126.425 100.383 121.38C124.75 106.713 136.203 97.1049 137.526 95.9694L137.531 95.9648C140.044 93.4242 140.895 90.6272 139.041 88.2057L139.046 88.2011C138.382 87.3634 137.521 86.695 136.542 86.2556C134.313 85.2393 131.749 85.2439 129.524 86.2693C125.656 88.4162 121.605 91.4649 117.448 94.5915C106.888 102.534 95.677 110.961 83.7157 108.178V108.174L83.7201 108.17ZM39.0927 130.065L39.729 131.374H39.7244C40.5301 133.036 39.8434 135.032 38.1863 135.846L30.3723 139.641C28.4314 140.539 26.6461 139.921 25.6802 138.016L10.29 106.311C9.4843 104.65 10.1709 102.654 11.8281 101.839L19.7886 97.9753C21.4503 97.1697 23.4507 97.8563 24.2609 99.5134L39.0927 130.065ZM108.01 36.6173L95.4529 49.1739L90.0055 43.7266C89.5661 43.2688 88.9664 43.0124 88.3347 43.0033C87.7075 42.9987 87.0987 43.2459 86.6547 43.6899C86.2061 44.134 85.9589 44.7428 85.968 45.3745C85.9726 46.0016 86.2335 46.6059 86.6913 47.0408L93.8004 54.1499L93.7958 54.1453C94.7113 55.0608 96.1945 55.0608 97.1099 54.1453L111.324 39.9316C111.772 39.4967 112.029 38.8971 112.033 38.2699C112.038 37.6427 111.791 37.0385 111.347 36.5945C110.902 36.1504 110.303 35.9032 109.676 35.9078C109.048 35.9124 108.449 36.1687 108.01 36.6173ZM99.0053 23.4887C93.2009 23.4887 87.6299 25.7959 83.5283 29.9021C79.4222 34.0082 77.115 39.5792 77.115 45.3837C77.115 51.1881 79.4222 56.7591 83.5283 60.8653C87.6345 64.9669 93.2009 67.2741 99.0053 67.2741C104.814 67.2741 110.381 64.9669 114.487 60.8608C118.593 56.7546 120.9 51.1882 120.9 45.3838C120.9 39.5748 118.593 34.0084 114.487 29.9022C110.381 25.7961 104.814 23.4887 99.0053 23.4887ZM111.173 33.2162C107.946 29.989 103.569 28.1762 99.0053 28.1762C94.446 28.1762 90.0697 29.989 86.8424 33.2162C83.6152 36.4435 81.8024 40.8197 81.8024 45.3838C81.8024 49.9477 83.6152 54.3239 86.8424 57.5467C90.0696 60.7739 94.4459 62.5867 99.0053 62.5867C103.569 62.5867 107.945 60.7739 111.173 57.5467C114.4 54.3241 116.213 49.9478 116.213 45.3838C116.213 40.82 114.4 36.4437 111.173 33.2162ZM114.817 20.0971C109.108 17.7671 103.775 14.5902 99.0058 10.6809C89.4293 18.5269 77.7198 23.3242 65.387 24.441C64.7461 37.7898 67.9733 48.9859 73.2239 57.9086C79.8523 69.1742 89.6852 76.832 99.0052 80.6371C108.325 76.8331 118.158 69.1701 124.786 57.9086C130.037 48.9868 133.264 37.7898 132.623 24.441C126.508 23.8871 120.501 22.4225 114.817 20.0971Z" fill="#6BC9C9"/>
</g>
</svg>
