<svg width="150" height="150" viewBox="0 0 150 150" fill="none" xmlns="http://www.w3.org/2000/svg">
<g id="Qualify - Lifestyle">
<g id="Group">
<path id="Vector" d="M64.1367 97.7506H87.2039C90.9209 97.7506 94.9447 97.3661 96.6154 94.496C98.2863 91.6304 96.6383 87.9407 94.8072 84.7089C92.3582 80.3876 88.5358 77.1146 84.0726 75.2974C86.9153 72.8987 88.7327 69.3144 88.7327 65.3136C88.7327 58.1084 82.8733 52.2495 75.6686 52.2495C68.4635 52.2495 62.6046 58.1089 62.6046 65.3136C62.6046 69.3145 64.4173 72.8988 67.2646 75.2974C62.8014 77.1147 58.9791 80.3923 56.53 84.7089C54.699 87.9453 53.0464 91.6349 54.7173 94.5005C56.3881 97.3661 60.4164 97.7506 64.1335 97.7506H64.1367ZM75.6724 56.9365C80.2912 56.9365 84.0494 60.6947 84.0494 65.3136C84.0494 69.9324 80.2912 73.6906 75.6724 73.6906C71.0535 73.6906 67.2953 69.9324 67.2953 65.3136C67.2953 60.6947 71.0535 56.9365 75.6724 56.9365ZM60.6114 87.0256C63.6327 81.6926 69.3181 78.3785 75.4427 78.3785H75.905C82.03 78.3785 87.7105 81.6926 90.7363 87.0256C93.0846 91.1684 92.5948 92.1022 92.5719 92.1388C92.549 92.1755 91.9768 93.0635 87.2115 93.0635H64.1443C59.3699 93.0635 58.7976 92.1755 58.7794 92.1388C58.7565 92.1022 58.2667 91.1684 60.6196 87.021L60.6114 87.0256Z" fill="#6BC9C9"/>
<path id="Vector_2" d="M46.1204 111.685C40.705 107.753 36.1868 102.86 32.6848 97.1284C32.0027 96.0252 31.3802 94.9083 30.8355 93.8051C30.2587 92.6469 28.8579 92.1709 27.6952 92.7476C26.5371 93.3198 26.061 94.7298 26.6378 95.8879C27.2466 97.1239 27.9424 98.369 28.6931 99.582C32.5109 105.835 37.4456 111.186 43.3685 115.48C43.7851 115.782 44.2657 115.928 44.7418 115.928C45.4651 115.928 46.1838 115.594 46.6416 114.962C47.4015 113.914 47.168 112.449 46.1197 111.689L46.1204 111.685Z" fill="#6BC9C9"/>
<path id="Vector_3" d="M123.668 92.7515C122.51 92.1655 121.105 92.6279 120.519 93.786C119.942 94.9304 119.31 96.052 118.642 97.1369C115.259 102.69 110.892 107.473 105.665 111.36C104.626 112.134 104.41 113.598 105.179 114.638C105.642 115.256 106.347 115.585 107.061 115.585C107.546 115.585 108.036 115.434 108.457 115.123C114.175 110.879 118.944 105.647 122.634 99.5907C123.367 98.4052 124.063 97.1646 124.704 95.8966C125.285 94.7431 124.823 93.3332 123.669 92.7472L123.668 92.7515Z" fill="#6BC9C9"/>
<path id="Vector_4" d="M63.159 32.2077C64.2988 38.4333 65.4249 39.3718 71.7512 39.3718H78.2469C84.5777 39.3718 85.6993 38.4333 86.8391 32.2077L91.0643 9.12766C91.1879 8.44101 91.0048 7.74062 90.5607 7.20508C90.1167 6.6695 89.4575 6.36279 88.7617 6.36279H61.2367C60.5409 6.36279 59.8817 6.67407 59.4376 7.20508C58.9936 7.74066 58.8059 8.44563 58.9341 9.12766L63.159 32.2077ZM82.2336 31.3609C82.0276 32.4915 81.7118 34.2036 81.5332 34.4829C81.1441 34.6797 79.4046 34.6797 78.251 34.6797H71.7553C70.6063 34.6797 68.8622 34.6797 68.5555 34.5515C68.29 34.2036 67.9787 32.4916 67.7727 31.3609L65.7311 20.2189C69.7961 19.4041 72.1399 20.2143 74.5934 21.0795C76.3558 21.7021 78.2509 22.3704 80.6634 22.3704C81.6613 22.3704 82.7507 22.256 83.9593 21.9722L82.238 31.3609L82.2336 31.3609ZM85.9552 11.0452L84.907 16.781C80.9106 18.3328 78.8783 17.6233 76.1499 16.662C73.4582 15.7144 70.1899 14.5654 64.8889 15.6091L64.0512 11.0498H85.9547L85.9552 11.0452Z" fill="#6BC9C9"/>
<path id="Vector_5" d="M40.5028 68.394C40.0267 64.3108 37.3901 61.0103 33.6226 59.7835C30.3634 58.7169 26.9163 59.3806 24.0553 61.5458C21.1988 59.3851 17.7519 58.7214 14.4972 59.7835C10.7252 61.0149 8.08848 64.3153 7.6079 68.3986C7.21422 71.7358 7.9146 80.483 22.8329 89.6025C23.2083 89.8314 23.634 89.9458 24.0552 89.9458C24.4763 89.9458 24.902 89.8314 25.2774 89.6025C40.1954 80.4839 40.8962 71.7361 40.5071 68.3986L40.5028 68.394ZM24.0508 84.8319C16.0766 79.6637 11.6911 73.7861 12.2594 68.9425C12.5249 66.6994 13.9349 64.8959 15.9444 64.2367C16.4891 64.0582 17.0384 63.9712 17.5923 63.9712C19.2631 63.9712 20.9249 64.7723 22.3347 66.2875C22.7788 66.7636 23.4013 67.0382 24.0513 67.0382C24.7013 67.0382 25.3284 66.7682 25.7679 66.2875C27.6402 64.2687 29.9747 63.5226 32.1628 64.2322C34.1723 64.8868 35.5823 66.6904 35.8432 68.9334C36.4108 73.7765 32.0209 79.6542 24.0471 84.8263L24.0508 84.8319Z" fill="#6BC9C9"/>
<path id="Vector_6" d="M138.809 63.2037C137.381 61.9128 134.644 60.3656 130.533 61.7618C130.931 59.8987 131.581 58.1866 132.483 57.5641C133.55 56.8317 133.82 55.3714 133.083 54.3049C132.35 53.2383 130.89 52.9728 129.824 53.7052C127.237 55.4859 126.148 59.1709 125.69 62.064C121.131 60.1597 118.132 61.8305 116.612 63.2038C112.392 67.017 111.705 76.071 115.175 82.2011C117.331 86.0142 120.636 88.0284 124.546 88.0284C125.562 88.0284 126.619 87.8911 127.704 87.6165C132.987 88.9577 137.528 87.0031 140.242 82.1965C143.707 76.067 143.021 67.0125 138.805 63.204L138.809 63.2037ZM136.168 79.8889C134.433 82.9514 131.819 83.9813 128.391 82.9422C128.171 82.8736 127.937 82.8415 127.709 82.8415C127.48 82.8415 127.251 82.8736 127.027 82.9422C123.602 83.9813 120.989 82.956 119.258 79.8935C116.892 75.7095 117.143 69.0399 119.757 66.6829C121.584 65.035 124.353 66.3808 126.354 67.7953C126.358 67.7999 126.363 67.7999 126.367 67.7999C126.541 67.9189 126.734 68.0104 126.935 68.0791C126.985 68.0974 127.036 68.1111 127.086 68.1249C127.278 68.1798 127.48 68.2164 127.69 68.221H127.709H127.727C127.942 68.221 128.143 68.1844 128.34 68.1295C128.386 68.1157 128.432 68.102 128.482 68.0883C128.684 68.0196 128.871 67.928 129.045 67.809C129.054 67.8044 129.064 67.7999 129.073 67.7953C131.078 66.3763 133.852 65.0304 135.678 66.6829C138.292 69.045 138.544 75.7054 136.177 79.89L136.168 79.8889Z" fill="#6BC9C9"/>
<path id="Vector_7" d="M96.8445 117.562H92.0518C88.8932 117.562 86.3206 120.14 86.3206 123.303V123.642H65.0253V123.303C65.0253 120.135 62.4481 117.562 59.285 117.562H54.5059C51.3382 117.562 48.7656 120.14 48.7656 123.303V138.043C48.7656 141.21 51.3428 143.783 54.5059 143.783H59.285C62.4527 143.783 65.0253 141.206 65.0253 138.043V137.704H86.3206V138.043C86.3206 141.21 88.8886 143.783 92.0518 143.783H96.8445C100.003 143.783 102.576 141.206 102.576 138.043V123.303C102.576 120.135 100.003 117.562 96.8445 117.562ZM60.3429 125.99V138.047C60.3429 138.629 59.8714 139.1 59.2901 139.1H54.511C53.9297 139.1 53.4582 138.629 53.4582 138.047V123.307C53.4582 122.726 53.9297 122.255 54.511 122.255H59.2901C59.8714 122.255 60.3429 122.726 60.3429 123.307V125.99ZM86.3257 133.021H65.0304V128.334H86.3257V133.021ZM97.8934 138.047C97.8934 138.629 97.4265 139.1 96.8497 139.1H92.057C91.4802 139.1 91.0133 138.629 91.0133 138.047V123.308C91.0133 122.726 91.4802 122.255 92.057 122.255H96.8497C97.4265 122.255 97.8934 122.726 97.8934 123.308V138.047Z" fill="#6BC9C9"/>
<path id="Vector_8" d="M100.361 27.0761C109.443 32.1984 116.877 40.2139 121.289 49.644C121.687 50.4955 122.53 50.9944 123.413 50.9944C123.747 50.9944 124.082 50.9211 124.407 50.7746C125.578 50.2253 126.087 48.8291 125.537 47.6572C120.712 37.3529 112.587 28.5908 102.662 22.9975C101.536 22.3657 100.103 22.764 99.467 23.8901C98.8307 25.0162 99.229 26.449 100.36 27.0853L100.361 27.0761Z" fill="#6BC9C9"/>
<path id="Vector_9" d="M26.934 50.7703C27.2544 50.9213 27.5932 50.99 27.9274 50.99C28.8108 50.99 29.6532 50.491 30.0514 49.6396C34.4688 40.2097 41.8979 32.1939 50.9799 27.0717C52.106 26.4354 52.5043 25.0072 51.8725 23.8764C51.2362 22.7503 49.808 22.3521 48.6773 22.9838C38.7529 28.5822 30.6281 37.3393 25.8023 47.6436C25.253 48.8154 25.7565 50.2116 26.933 50.761L26.934 50.7703Z" fill="#6BC9C9"/>
</g>
</g>
</svg>
