<svg width="150" height="150" viewBox="0 0 150 150" fill="none" xmlns="http://www.w3.org/2000/svg">
<g id="Qualify - Travel">
<path id="Vector" d="M64.0313 69.4102C61.7608 65.3498 57.8195 62.6169 53.2098 61.9029C52.1615 61.7427 51.1224 61.2437 50.129 60.4198C47.3962 58.163 43.6974 57.2795 40.2413 58.0577C36.5105 58.9 33.4526 61.5047 31.64 65.3865C31.466 65.7573 31.347 66.1739 31.2921 66.5812C31.0724 68.2521 31.109 69.8589 31.4019 71.3603C31.5118 71.9233 31.2738 72.6054 30.6878 72.7839C25.1534 74.4364 21.6882 79.7419 22.4435 85.4003C22.6128 86.6728 22.4526 87.982 21.9765 89.1814C20.3102 93.3975 20.6216 98.0757 22.828 102.026C25.9316 107.579 32.0839 110.509 38.2452 109.534C40.9368 113.631 45.4687 116.08 50.394 116.08C50.6046 116.08 50.8197 116.075 51.0349 116.066C56.8484 115.819 61.9251 112.115 64.6169 106.155C64.7817 105.785 64.8961 105.377 64.9465 104.983C65.3951 101.417 64.8916 98.0254 63.4954 95.1599C64.0172 92.2165 63.6144 89.186 62.3555 86.4853C66.4021 81.7428 67.1349 74.9625 64.0313 69.4102ZM58.0575 84.4617C57.2655 85.1941 57.1053 86.3843 57.6729 87.2999L57.8148 87.5242C57.856 87.5883 57.9018 87.6524 57.9384 87.7164C59.0966 89.7901 59.4857 92.2209 59.0233 94.56C58.8631 95.3794 58.9776 96.2033 59.3575 96.945C60.4561 99.0918 60.8315 101.605 60.5111 104.306C58.5107 108.742 54.9859 111.387 50.8431 111.566C47.0254 111.717 43.4869 109.758 41.6237 106.425C41.5871 106.357 41.5505 106.283 41.5185 106.215L41.404 105.977C41.0149 105.198 40.2276 104.731 39.3898 104.731C39.1884 104.731 38.9824 104.759 38.781 104.814C34.0798 106.137 29.1358 104.086 26.7552 99.8243C25.2125 97.0593 24.9974 93.7818 26.1647 90.8292C26.92 88.9157 27.1763 86.8329 26.9062 84.8005C26.5126 81.8434 28.1285 78.2452 31.9782 77.0918C34.7477 76.2632 36.4002 73.4251 35.8234 70.4863C35.622 69.4654 35.5991 68.3485 35.7227 67.2864C36.9358 64.691 38.8949 62.9697 41.2387 62.4388C43.3444 61.9627 45.6012 62.5028 47.272 63.8807C48.9016 65.2265 50.6731 66.0552 52.5317 66.3436C55.7589 66.8425 58.5238 68.756 60.1123 71.5987C62.4835 75.865 61.6417 81.1515 58.0575 84.4617ZM135.708 110.495L142.25 106.691C143.028 106.238 143.541 105.459 143.66 104.549C143.797 103.482 143.371 102.333 142.52 101.486L139.292 98.2589C138.386 97.3525 137.164 96.936 136.052 97.1511L126.191 99.0371L116.331 87.2492L138.784 73.0906C139.608 72.5688 140.144 71.7082 140.254 70.7286C140.368 69.6941 140.002 68.6641 139.246 67.9042L135.799 64.4618C134.93 63.5875 133.666 63.2349 132.504 63.5417L108.754 69.8359C108.64 40.3328 84.6079 16.3691 55.0813 16.3691C41.4442 16.3691 28.9883 21.487 19.509 29.8961C19.2161 30.0609 18.9597 30.2852 18.7629 30.5644C8.09695 40.3789 1.40039 54.4461 1.40039 70.0508C1.40039 99.65 25.4836 123.733 55.0828 123.733C63.4324 123.733 71.3473 121.815 78.4008 118.396C78.4054 119.288 78.7624 120.176 79.4262 120.835L82.8731 124.282C83.5369 124.946 84.4112 125.312 85.3175 125.312C85.4457 125.312 85.5693 125.303 85.6929 125.29C86.6725 125.18 87.5331 124.644 88.0549 123.816L102.214 101.367L114.001 111.227L112.115 121.088C111.9 122.209 112.317 123.422 113.223 124.329L116.45 127.556C117.197 128.302 118.162 128.719 119.11 128.719C119.247 128.719 119.385 128.709 119.517 128.691C120.424 128.572 121.207 128.055 121.655 127.281L125.455 120.744C126.503 121.481 127.73 121.866 129.007 121.866C130.911 121.866 132.898 121.06 134.459 119.495C137.073 116.89 137.548 113.118 135.708 110.495ZM133.04 68.0555L135.09 70.1063L113.425 83.7656L106.229 75.1596L133.04 68.0555ZM88.0419 33.5813C97.9982 42.5855 104.265 55.5996 104.265 70.0512C104.265 70.3808 104.247 70.7012 104.242 71.0308L103.043 71.3512L94.4829 61.1156C91.5715 58.0074 85.7121 55.5996 80.8552 55.5218C80.3837 55.5126 79.9259 55.5309 79.4773 55.563C78.8593 53.9516 78.5114 52.2075 78.5114 50.3948C78.5114 46.0689 80.4386 42.0086 83.8031 39.2665C85.5244 37.8521 86.9066 35.9708 88.0419 33.5813ZM22.7005 33.0823C31.3568 25.488 42.6868 20.869 55.0829 20.869C56.8681 20.869 58.6351 20.9697 60.37 21.1574C60.3975 21.1711 60.425 21.1894 60.4524 21.2032C62.4758 22.0775 64.0413 23.9131 64.6455 26.1104C65.3138 28.532 64.7691 31.1641 63.112 33.5353L62.9518 33.6955C59.0608 36.5337 55.8519 35.6639 54.2772 34.8811C53.2884 34.3959 51.9517 34.3501 50.9446 34.7758C49.5805 35.3526 48.1431 35.6456 46.6646 35.6456C45.0167 35.6456 43.561 36.6297 42.9567 38.1541C41.8351 40.9831 39.5555 43.1895 36.6944 44.2057C33.6732 45.2815 30.2719 44.9015 27.118 43.1437C25.9598 42.4983 25.0122 41.569 24.376 40.4612C22.9935 38.0488 22.4258 35.5176 22.7005 33.0823ZM79.8387 112.523C72.5603 116.78 64.1051 119.233 55.0829 119.233C27.9645 119.233 5.90046 97.1693 5.90046 70.051C5.90046 57.4803 10.6429 46.0041 18.429 37.3029C18.7906 39.134 19.4681 40.9467 20.466 42.6954C21.5097 44.5128 23.0478 46.028 24.9201 47.0717C27.5842 48.5594 30.4041 49.3102 33.1736 49.3102C34.8856 49.3102 36.5748 49.0218 38.2045 48.445C42.1733 47.0306 45.3639 44.0139 47.0027 40.1412C48.8841 40.1 50.7243 39.7201 52.4776 39.0105C56.7165 41.0155 61.555 40.3655 65.7842 37.2069C65.8758 37.1383 66.0085 37.0192 66.0863 36.9368L66.4571 36.5615C66.535 36.4791 66.6082 36.3921 66.6769 36.3005C69.2175 32.7666 70.0414 28.7246 68.9932 24.916C68.7734 24.1195 68.4622 23.3551 68.0914 22.6272C74.0835 24.2705 79.6317 27.0172 84.4789 30.6426C84.4102 30.7845 84.3278 30.931 84.2683 31.0729C83.3711 33.1511 82.2862 34.6892 80.9587 35.7741C76.5459 39.3767 74.0144 44.7051 74.0144 50.3909C74.0144 52.6202 74.4127 54.7672 75.1268 56.7676C74.4035 57.1612 73.7397 57.6373 73.1721 58.205C71.3639 60.0132 70.4347 62.6728 70.485 65.8863C70.5628 70.7431 72.9706 76.5979 76.175 79.596L86.3144 88.0738L79.8387 112.523ZM85.0756 120.121L83.0248 118.071L90.1248 91.2593L98.7308 98.4553L85.0756 120.121ZM118.698 123.426L116.652 121.376L117.961 114.527L121.939 117.855L118.698 123.426ZM131.286 116.317C130.238 117.366 128.736 117.677 127.94 117.013L79.1559 76.2261C77.2012 74.395 75.0498 69.8953 74.9857 65.812C74.9628 64.4387 75.1825 62.5573 76.3544 61.3855C77.4759 60.264 79.2475 60.0167 80.5979 60.0167H80.781C84.8643 60.0854 89.3686 62.2323 91.1127 64.0954L131.982 112.976C132.646 113.767 132.334 115.269 131.286 116.317ZM129.496 102.987L136.345 101.678L138.395 103.729L132.824 106.965L129.496 102.987ZM141.989 129.789C142.867 130.668 142.867 132.092 141.989 132.971C141.549 133.41 140.972 133.63 140.396 133.63C139.819 133.63 139.242 133.41 138.802 132.971L133.721 127.89C132.842 127.011 132.842 125.587 133.721 124.708C134.6 123.829 136.024 123.829 136.903 124.708L141.989 129.789ZM147.939 127.02C147.5 127.459 146.923 127.679 146.346 127.679C145.77 127.679 145.193 127.459 144.753 127.02L139.672 121.939C138.793 121.06 138.793 119.636 139.672 118.757C140.551 117.878 141.975 117.878 142.854 118.757L147.935 123.838C148.818 124.717 148.818 126.141 147.939 127.02Z" fill="#6BC9C9"/>
</g>
</svg>
