<svg width="150" height="150" viewBox="0 0 150 150" fill="none" xmlns="http://www.w3.org/2000/svg">
<g id="Qualify - Finance">
<g id="Group">
<path id="Vector" d="M108.435 21.4688H42.7405C41.5 21.4688 40.4883 22.4758 40.4883 23.721V59.2616C40.4883 60.5067 41.4954 61.5138 42.7405 61.5138H108.435C109.675 61.5138 110.687 60.5067 110.687 59.2616V23.721C110.687 22.4804 109.68 21.4688 108.435 21.4688ZM106.187 57.0094H44.9929V25.9688H106.187V57.0094Z" fill="#6BC9C9"/>
<path id="Vector_2" d="M67.903 70.5046H53.4925C52.2519 70.5046 51.2402 71.5117 51.2402 72.7569V87.1627C51.2402 88.4078 52.2473 89.4149 53.4925 89.4149H67.903C69.1436 89.4149 70.1552 88.4079 70.1552 87.1627V72.7569C70.1552 71.5117 69.1436 70.5046 67.903 70.5046ZM65.6554 84.9105H55.7448V75.0045H65.6554V84.9105Z" fill="#6BC9C9"/>
<path id="Vector_3" d="M99.3425 70.5046H84.9319C83.6914 70.5046 82.6797 71.5117 82.6797 72.7569V87.1627C82.6797 88.4078 83.6868 89.4149 84.9319 89.4149H99.3425C100.583 89.4149 101.595 88.4079 101.595 87.1627V72.7569C101.59 71.5117 100.583 70.5046 99.3425 70.5046ZM97.0902 84.9105H87.1797V75.0045H97.0902V84.9105Z" fill="#6BC9C9"/>
<path id="Vector_4" d="M67.903 99.3259H53.4925C52.2519 99.3259 51.2402 100.333 51.2402 101.578V115.984C51.2402 117.229 52.2473 118.236 53.4925 118.236H67.903C69.1436 118.236 70.1552 117.229 70.1552 115.984V101.578C70.1552 100.333 69.1436 99.3259 67.903 99.3259ZM65.6554 113.732H55.7448V103.826H65.6554V113.732Z" fill="#6BC9C9"/>
<path id="Vector_5" d="M99.3425 99.3259H84.9319C83.6914 99.3259 82.6797 100.333 82.6797 101.578V115.984C82.6797 117.229 83.6868 118.236 84.9319 118.236H99.3425C100.583 118.236 101.595 117.229 101.595 115.984V101.578C101.59 100.333 100.583 99.3259 99.3425 99.3259ZM97.0902 113.732H87.1797V103.826H97.0902V113.732Z" fill="#6BC9C9"/>
<path id="Vector_6" d="M111.959 11.1191H39.2207C33.6452 11.1191 29.1133 15.6556 29.1133 21.2311V128.774C29.1133 134.35 33.6497 138.882 39.2207 138.882H111.964C117.539 138.882 122.071 134.345 122.071 128.774L122.067 21.2311C122.067 15.6556 117.535 11.1191 111.959 11.1191ZM117.567 128.775C117.567 131.87 115.049 134.383 111.959 134.383H39.2207C36.1263 134.383 33.613 131.865 33.613 128.775L33.6085 21.2324C33.6085 18.138 36.1261 15.6202 39.2161 15.6202H111.959C115.054 15.6202 117.567 18.1379 117.567 21.2324L117.567 128.775Z" fill="#6BC9C9"/>
<path id="Vector_7" d="M80.8497 50.5606C80.9459 50.611 82.3192 51.3022 84.2967 51.6272V53.2844C84.2967 54.5295 85.3038 55.5366 86.5489 55.5366C87.7895 55.5366 88.8012 54.5295 88.8012 53.2844V51.4991C88.879 51.4808 88.9568 51.4763 89.0346 51.4534C91.5066 50.8033 93.214 48.8486 93.4887 46.3584C93.7496 44.0238 92.6739 41.8723 90.7559 40.8789C88.435 39.6797 87.1533 39.1211 87.0983 39.0983C87.048 39.0754 86.961 39.0434 86.9015 39.025C86.6177 38.9289 85.9356 38.5719 85.7479 38.1416C85.606 37.8211 85.7617 37.3359 85.9173 36.9926C86.2057 36.3471 86.5582 36.1503 86.8282 36.0496C87.936 35.6422 89.703 36.2693 90.2202 36.5165C91.3372 37.0612 92.683 36.6035 93.2323 35.4865C93.7816 34.3696 93.3193 33.0237 92.2023 32.4745C91.9689 32.36 90.5636 31.7054 88.7966 31.4903V30.0987C88.7966 28.8535 87.7895 27.8464 86.5444 27.8464C85.3039 27.8464 84.2922 28.8535 84.2922 30.0987V32.3005C83.2164 32.9414 82.365 33.9073 81.8019 35.1569C80.8361 37.3176 81.184 38.9838 81.6417 40.0046C82.6076 42.1424 84.7499 43.0442 85.3771 43.2685C85.6655 43.3967 86.8191 43.9186 88.6775 44.8799C88.9064 44.9989 89.0529 45.4338 89.0071 45.8686C88.9568 46.3127 88.7233 46.8849 87.881 47.1092C85.3954 47.7638 82.9692 46.5965 82.8914 46.5553C81.7836 45.9922 80.4377 46.4271 79.8702 47.5303C79.3117 48.6381 79.7465 49.9977 80.8497 50.5606Z" fill="#6BC9C9"/>
<path id="Vector_8" d="M56.7659 39.2391H70.5038C71.7443 39.2391 72.756 38.232 72.756 36.9868C72.756 35.7417 71.7489 34.7346 70.5038 34.7346H56.7659C55.5254 34.7346 54.5137 35.7417 54.5137 36.9868C54.5183 38.2365 55.5253 39.2391 56.7659 39.2391Z" fill="#6BC9C9"/>
<path id="Vector_9" d="M56.7659 48.2437H70.5038C71.7443 48.2437 72.756 47.2366 72.756 45.9915C72.756 44.7463 71.7489 43.7393 70.5038 43.7393H56.7659C55.5254 43.7393 54.5137 44.7463 54.5137 45.9915C54.5183 47.2366 55.5253 48.2437 56.7659 48.2437Z" fill="#6BC9C9"/>
</g>
</g>
</svg>
