<?xml version="1.0" encoding="UTF-8"?>
<svg width="114px" height="40px" viewBox="0 0 114 40" version="1.1" xmlns="http://www.w3.org/2000/svg" xmlns:xlink="http://www.w3.org/1999/xlink">
    <title>Goose Logo_Black</title>
    <defs>
        <path d="M0,21.7534132 L0,18.3292233 C0.865732854,8.06218948 9.44584983,0 19.9021996,0 C30.9337207,0 39.8766696,8.97287882 39.8766696,20.0413198 C39.8766696,30.4935814 31.9017121,39.0767447 21.723971,40 L18.0804921,40 C8.46463756,39.1276861 0.814888349,31.4174282 0,21.7534132" id="path-1"></path>
        <path d="M24.9412759,13.4646481 C24.8812679,13.5549614 24.6730048,13.5850658 24.5335743,13.5753262 C23.3457685,13.495638 22.1588451,13.4008976 20.948095,13.307928 C20.9992783,13.9303813 21.0672285,14.4625214 21.0848779,14.9964323 C21.1695952,17.6385385 20.2182915,19.7848072 18.0403532,21.2917994 C15.9630167,22.7288431 13.6112316,23.1680136 11.1429604,23.093638 C9.20858416,23.0360854 7.34921791,22.6163942 5.58957088,21.7885225 C3.70461297,20.9022127 2.13381471,19.6360559 1.07837948,17.7917169 C0.490212602,16.77038 0.140312878,15.629068 0.0547131977,14.4527817 C0.0467709593,14.3483016 0.0185318895,14.2464778 0,14.1428832 L0,12.7412564 C0.0202968314,12.6394326 0.051183314,12.5384943 0.0600080233,12.435785 C0.2276775,10.6082692 0.794223838,8.92065035 1.78435622,7.38266825 C3.21219419,5.16733652 5.21452073,3.63289612 7.52394716,2.48804243 C10.3575613,1.08641568 13.372082,0.360367712 16.5075012,0.121303136 C17.0590456,0.0788027674 17.6105899,0.0398440959 18.1621342,0 L19.0419577,0 C19.6535101,0.127501107 20.2827119,0.199220479 20.87132,0.395784686 C21.8085041,0.710995755 22.6071403,1.24047952 22.9804255,2.24100904 C22.9910152,2.27022804 22.9998399,2.30210332 23.0086646,2.33220774 C23.2257524,3.03700553 23.1789815,3.19638191 22.5833136,3.61253136 C21.7564383,4.18894261 20.8554355,4.64936328 19.9041318,4.98051198 C18.6942642,5.40728652 17.8294427,4.89905294 17.5973528,3.62758357 C17.5858807,3.56471844 17.5638189,3.50096789 17.5699962,3.43898819 C17.6079425,3.00867195 17.3255518,2.92809833 16.9963901,2.87143118 C16.0865626,2.71471107 15.1793825,2.77314907 14.2739673,2.88559797 C11.9089452,3.18044427 9.70012047,3.96138855 7.64925803,5.18150331 C5.39542727,6.52292121 3.51664666,8.24861327 2.35796233,10.6773323 C1.8699559,11.7008828 1.60080227,12.7837568 1.51608506,13.9153291 C1.37312477,15.8437834 2.22029686,17.2462955 3.78227041,18.2521376 C5.13068599,19.1216243 6.63353399,19.5448572 8.20344977,19.7555882 C10.3134378,20.0371531 12.401364,19.932673 14.4575213,19.3660014 C15.8959489,18.9693313 17.2399521,18.3725553 18.3271563,17.299421 C19.2678703,16.3697254 19.7346974,15.2372677 19.6640997,13.8949644 C19.6561575,13.7506402 19.6182113,13.6080869 19.5811475,13.3920433 C17.957401,13.6567852 16.3610111,13.9277251 14.7602088,14.1712168 C13.8411153,14.3133274 12.9180507,14.4288753 11.9918975,14.5165323 C11.3821101,14.572314 10.7758525,14.4775736 10.2198958,14.1942378 C9.35066198,13.7515256 8.98090666,12.9431332 8.75322916,12.0470837 C8.7338148,11.9691664 8.80353001,11.8460924 8.86795038,11.7788002 C8.90413169,11.7398415 9.0373848,11.7416123 9.08503823,11.7788002 C9.78925003,12.3259924 10.5993583,12.2409917 11.3794627,12.120574 C12.8981951,11.8868219 14.4081029,11.5937465 15.9180106,11.3077544 C18.1338952,10.8880633 20.3586044,10.563998 22.6212598,10.6401444 C22.966306,10.651655 23.3104696,10.6844157 23.6546333,10.7162909 C23.9158447,10.7410828 24.0764544,10.8721256 24.1717613,11.1430655 C24.3959089,11.780571 24.6650625,12.4012535 24.9015647,13.0343319 C24.9518656,13.1698018 25.0030489,13.3707931 24.9412759,13.4646481 Z M53.5139197,12.2781795 C52.7355804,13.4761586 52.4293629,14.8308579 52.2943449,16.2413389 C53.746892,15.1265896 54.8464508,13.7807446 55.264742,11.9966146 C55.311513,11.7965087 55.2532699,11.4653599 55.112957,11.3626507 C54.9673493,11.2555144 54.597594,11.2625978 54.4405142,11.3732758 C54.0901732,11.6220801 53.7433622,11.9240098 53.5139197,12.2781795 Z M57.7135989,17.08869 C58.0745295,18.6479223 57.6774176,20.0229863 56.4904942,21.1209125 C54.5367035,22.9298345 51.4771768,22.2347763 50.4270364,19.7750675 C49.9716814,18.7090166 49.8763745,17.5924965 49.9760938,16.2041511 C50.1278788,14.5900225 50.6741283,12.8554762 51.8451672,11.3440568 C52.4055362,10.6215505 53.0885687,10.0292016 54.0045735,9.76534519 C55.7783401,9.25445533 57.2352996,10.1646716 56.9643811,12.179012 C56.7472932,13.7869426 55.7951071,14.9982031 54.5517055,15.9916492 C53.913679,16.5016537 53.1794632,16.9036363 52.4708391,17.3268692 C52.2643409,17.4508286 52.1760938,17.5615066 52.1866834,17.7996858 C52.215805,18.4876605 52.2943449,19.1650101 52.5864428,19.7998594 C53.12475,20.9677341 54.3160858,21.2112258 55.2868038,20.3488225 C56.2381075,19.5050131 56.5134384,18.4141703 56.4604901,17.2153057 C56.4499005,16.9886371 56.3978347,16.7637393 56.359006,16.5397269 C56.3078227,16.2395681 56.4022471,16.1483693 56.724349,16.1944114 C57.2635387,16.2740996 57.5979952,16.5893107 57.7135989,17.08869 Z M44.7677503,11.5477044 C44.4138795,11.8939053 44.2453275,12.3888575 44.3150427,12.8802681 C45.2689938,13.0901136 46.2476541,13.0635509 47.2104299,12.623495 C47.3308871,12.568156 47.4504619,12.5106034 47.5687131,12.4508372 C47.538709,12.3640657 47.5051751,12.2392208 47.418693,12.0966675 C46.873326,11.1908784 45.6140399,10.6941553 44.7677503,11.5477044 Z M38.7960695,19.8706933 L38.7960695,19.8698079 C39.5894109,18.0971883 39.859447,16.2466514 39.4455681,14.3252806 C39.4279187,14.2393944 39.404092,14.1552791 39.3793828,14.0729347 C38.8781393,14.2455924 38.3539516,14.3421037 37.824469,14.3589267 C37.3417574,14.3784061 36.8563984,14.3580413 36.3710394,14.3226243 C35.7722829,15.959774 35.6399122,17.7319508 35.988047,19.4403771 C36.0762941,19.8839747 36.2854397,20.3302286 36.5387089,20.7074193 C36.9022869,21.2510699 37.5729648,21.3148204 38.0494991,20.8667957 C38.3486568,20.5870016 38.6292825,20.2425716 38.7960695,19.8706933 Z M38.9328525,11.4131199 C37.9727242,11.6512991 37.3638192,12.28969 36.9225837,13.0812594 C37.8306463,13.0626655 38.7793026,12.8882369 39.3149624,12.2153144 C39.4773371,12.0125522 39.6132376,11.6610387 39.6317695,11.3431714 C39.4005621,11.3334317 39.1675898,11.3537965 38.9328525,11.4131199 Z M29.6166069,19.8751204 L29.6174894,19.8751204 C30.4108307,18.1033863 30.6835143,16.2528494 30.2705179,14.3314786 C30.2466912,14.2243422 30.2378664,14.1384561 30.235219,14.0676221 L30.0428404,14.0295489 C29.219495,13.8684016 28.3846775,13.6691812 27.5939835,13.3672515 C27.1421584,14.2208005 26.8906542,15.1531524 26.7512238,16.1191503 C26.5632575,17.4136407 26.5288411,18.7116728 26.9568395,19.974288 C27.0486165,20.2381444 27.1818696,20.4856205 27.351304,20.7074193 C27.7501809,21.2315906 28.3899723,21.3165913 28.869154,20.8703374 C29.1683117,20.5914287 29.4507024,20.2469987 29.6166069,19.8751204 Z M30.100201,11.3555673 C29.2892102,11.4219741 28.6511837,11.8540612 28.1349382,12.5163586 L28.3308468,12.5933906 C28.3599683,12.6049011 28.3899723,12.6146408 28.4190939,12.6252658 C28.458805,12.6288075 28.4976338,12.6305784 28.5417573,12.6385472 C28.9388692,12.7005269 29.6872046,12.600474 29.9713602,12.2578147 C30.1672688,12.0214064 30.2025676,11.6486428 30.100201,11.3555673 Z M47.9534704,16.708843 C48.5535506,17.2108786 49.3680713,17.843957 49.5842767,18.6426097 C49.8251912,19.5333466 48.9180111,20.3072075 48.3108711,20.8136703 C47.4778185,21.5096138 46.3491382,22.1781092 45.2284001,22.1373797 C43.9223432,22.0895667 42.8395513,21.0394535 42.0223833,20.1124142 C41.6623351,19.7042335 43.1801851,18.5744321 43.5958289,19.0454778 C44.2470925,19.7839217 45.0589657,20.6241894 46.0649826,20.8180974 C46.6588855,20.9332025 47.8925799,20.483407 48.0002413,19.7732966 C48.1352594,18.8834452 46.2308871,17.6438511 45.6837551,17.2303579 C44.836583,16.5910815 43.7732056,16.0545144 43.1872449,15.1354439 C42.9630973,14.7848158 42.8192545,14.4173647 42.7513042,14.0454865 C42.370518,13.9405637 41.9972328,13.8099636 41.634096,13.6550144 C41.6499805,13.8347555 41.6768959,14.0131685 41.7135184,14.1898107 C41.9270764,15.1478398 41.1566793,19.1198535 39.6644209,20.8729937 C38.0768557,22.7385828 35.3773771,22.150661 34.4287209,20.0415802 C33.9062981,18.8807889 33.7633378,17.6580179 33.8427602,16.4051424 C33.8811477,15.7707359 33.9680711,15.1403137 34.1022066,14.5191885 C33.5965508,14.543095 33.075893,14.5147614 32.5596475,14.4572088 C32.4899323,14.5324699 32.4537509,14.6174706 32.4537509,14.7679928 C32.4590458,17.0151998 31.9825115,19.1145409 30.4911356,20.8685666 C28.9018055,22.7403536 26.2032093,22.1488902 25.2527882,20.0468928 C24.8830328,19.2230054 24.6813882,18.3331539 24.6597677,17.4295784 C24.5953473,15.2886223 25.044525,13.2663131 26.1599683,11.4264013 C26.7150425,10.5099871 27.4210192,9.74586585 28.4861616,9.42711308 C29.1533097,9.2278926 29.8169278,9.27747637 30.4584842,9.5404474 C31.1644609,9.82909574 31.8254316,10.5994149 31.8192544,11.417547 C31.9736868,11.874426 31.8889696,12.2560439 31.6568797,12.565057 C32.5843566,12.8466219 33.5868436,12.915685 34.5681513,12.9688105 L34.6175697,12.8439657 C35.0755721,11.2909313 36.1504217,9.70867803 37.6400326,9.40320663 C37.7273972,9.38549814 37.8156443,9.37265948 37.9047739,9.36513338 C38.4876459,9.24560109 39.093021,9.30713808 39.6397117,9.54221825 C40.0738874,9.72018854 40.4101089,10.0902959 40.5945453,10.5374352 C40.7864827,10.7764998 40.9254719,11.054523 41.0013644,11.3520256 C41.6146817,11.7460395 42.2694751,12.1267719 42.9489777,12.4233891 C43.0659051,12.1568764 43.2181314,11.9076294 43.4016853,11.6822889 C44.7103897,10.0708166 47.8855201,8.77101364 49.0900929,11.2023889 C49.8825518,12.8005799 47.3445654,13.6435038 46.187646,14.0162675 C45.779062,14.147753 45.3567997,14.2309829 44.9292425,14.2650717 C45.1397118,14.5426523 45.3876861,14.7896857 45.6661057,14.9982031 C46.432973,15.5648747 47.2210195,16.0952439 47.9534704,16.708843 Z" id="path-3"></path>
    </defs>
    <g id="Page-1" stroke="none" stroke-width="1" fill="none" fill-rule="evenodd">
        <g id="Goose-Logo_Black">
            <g id="Group-11">
                <mask id="mask-2" fill="white">
                    <use xlink:href="#path-1"></use>
                </mask>
                <g id="Clip-5"></g>
                <path d="M39.8766696,20.0413198 C39.8766696,31.1097608 30.9337207,40.0822345 19.9021996,40.0822345 C8.87108229,40.0822345 -0.0718665869,31.1097608 -0.0718665869,20.0413198 C-0.0718665869,8.97287882 8.87108229,0 19.9021996,0 C30.9337207,0 39.8766696,8.97287882 39.8766696,20.0413198" id="Fill-4" fill="#F72697" mask="url(#mask-2)"></path>
                <path d="M6.72033337,35.5467785 C6.72033337,35.5467785 3.18473954,15.0193433 13.6070096,10.1630512 C23.239151,5.67539649 26.2450315,14.0572401 26.2450315,14.0572401 C26.2450315,14.0572401 27.8067167,19.2813595 20.5179106,20.61129 C13.2287007,21.9408155 13.7729488,25.0515485 13.6308306,25.9536975 C13.4887124,26.8562516 16.565652,39.4887687 18.1983963,41.412165 L7.90370958,41.150878" id="Fill-6" fill="#FFFFFF" mask="url(#mask-2)"></path>
                <path d="M13.0155234,43.7629378 C10.4121765,36.2593425 7.3828787,27.1410342 8.99220575,16.3606166 C8.99220575,16.3606166 3.78591565,20.9199733 8.70837311,45.6150372 C8.70837311,45.6150372 15.6188703,51.266533 13.0155234,43.7629378" id="Fill-7" fill="#E5E5E5" mask="url(#mask-2)"></path>
                <path d="M24.0599643,16.2265297 C23.6598531,16.5574933 23.4050901,17.0581921 23.4050901,17.6192502 C23.4050901,18.6157866 24.2101574,19.4239533 25.2037735,19.4239533 C25.4944698,19.4239533 25.7694201,19.3546819 26.0128782,19.2315327 L26.0181269,19.2270766 C26.1864885,19.1144599 28.5060028,17.6192502 33.0606487,17.6192502 L33.1082906,17.6192502 C33.9444462,17.6192502 34.6227376,16.9386887 34.6227376,16.0993296 C34.6227376,15.2603755 33.9444462,14.5798141 33.1082906,14.5798141 L33.0606487,14.5798141 C29.5113275,14.5798141 26.7331591,11.1603978 26.7331591,11.1603978 C26.3395078,10.6856252 25.8497653,10.305645 25.2037735,10.305645 C24.2101574,10.305645 23.4050901,11.1134067 23.4050901,12.1103482 C23.4050901,12.6645197 23.6542007,13.1603573 24.0458332,13.4917259 C24.0458332,13.4917259 24.7778227,14.1050414 24.7778227,14.8645966 C24.7778227,15.6245569 24.0599643,16.2265297 24.0599643,16.2265297" id="Fill-8" fill="#FFBD15" mask="url(#mask-2)"></path>
                <path d="M18.4143998,14.8431265 C17.5685543,14.8431265 16.7776181,14.4432967 16.3993091,13.8247149 C16.2147977,13.5229183 16.309274,13.1279496 16.610064,12.9428207 C16.9108539,12.7580969 17.3045051,12.8524843 17.4886128,13.1542809 C17.6121587,13.3564238 17.9698767,13.5605923 18.4143998,13.5605923 C18.9114097,13.5605923 19.2687239,13.3787041 19.3522991,13.2073484 C19.5073372,12.889348 19.890491,12.7580969 20.207027,12.9136538 C20.5239667,13.0696158 20.6551838,13.4536469 20.499742,13.7716473 C20.1771499,14.4323591 19.3781388,14.8431265 18.4143998,14.8431265" id="Fill-9" fill="#000B38" mask="url(#mask-2)"></path>
                <path d="M33.1082906,16.787993 L33.0606487,16.787993 C28.4975242,16.787993 26.0294318,18.2329708 25.6014622,18.5076259 C25.4767051,18.5643394 25.3430655,18.5926961 25.2037735,18.5926961 C24.6684078,18.5926961 24.2331709,18.1560025 24.2331709,17.6192502 C24.2331709,17.327581 24.3623692,17.0533309 24.5868514,16.8673918 L24.5912926,16.864151 C24.695055,16.7770554 25.6059034,15.9810415 25.6059034,14.8645966 C25.6059034,13.7485568 24.6825389,12.9420105 24.579584,12.855725 C24.359543,12.6697859 24.2331709,12.3983715 24.2331709,12.1103482 C24.2331709,11.5735958 24.6684078,11.1369022 25.2037735,11.1369022 C25.3890924,11.1369022 25.6830187,11.1940208 26.094031,11.6890482 C26.2567401,11.8883555 29.1903504,15.4110713 33.0606487,15.4110713 L33.1082906,15.4110713 C33.4865995,15.4110713 33.7942531,15.7197545 33.7942531,16.0993296 C33.7942531,16.4793097 33.4865995,16.787993 33.1082906,16.787993 M33.1082906,13.7485568 L33.0606487,13.7485568 C29.9570619,13.7485568 27.3997419,10.6653704 27.3751134,10.6353932 L27.3698648,10.6289117 C26.7351778,9.86287497 26.0060146,9.4743878 25.2037735,9.4743878 C24.8553417,9.4743878 24.5234634,9.54325414 24.2190398,9.66721355 C23.5136975,9.23538109 21.8890281,8.37576715 19.7564477,8.09665593 C18.0821178,7.87790403 16.4404911,8.06060238 14.8767872,8.64070001 C12.948098,9.35569464 11.1473959,10.6759029 9.52474523,12.564866 C7.80640707,14.5644204 6.62101213,17.3591785 6.00086001,20.8713617 C5.51475118,23.6252051 5.37101801,26.8327561 5.57369793,30.4061088 C5.91728482,36.4562192 7.1192333,41.4032529 7.1705089,41.6110672 C7.26337022,41.9898321 7.60170842,42.2434223 7.97396119,42.2434223 C8.03936786,42.2434223 8.10598576,42.2353203 8.17260366,42.2191165 C8.61672302,42.1093354 8.88844332,41.6588686 8.77902846,41.2132628 C8.76691611,41.1638411 7.55891146,36.1864252 7.22622569,30.2853902 C7.03242815,26.8457191 7.16970141,23.7714448 7.63441175,21.1484475 C8.20248078,17.9408965 9.26029234,15.4179579 10.7791805,13.6501185 C12.2052074,11.9904397 13.7636626,10.8347005 15.4109417,10.2144984 C16.7118077,9.72514229 18.0792915,9.56431913 19.4762488,9.73648498 C20.9660674,9.92039861 22.1837619,10.4486439 22.906869,10.8326751 C22.6969216,11.2114399 22.5766057,11.6469182 22.5766057,12.1103482 C22.5766057,12.8877276 22.9161551,13.6213567 23.5104675,14.1252962 C23.6481445,14.2443945 23.9493382,14.5960179 23.9493382,14.8645966 C23.9493382,15.1343906 23.6659093,15.4685949 23.5262136,15.5909339 C22.922615,16.0936582 22.5766057,16.8321484 22.5766057,17.6192502 C22.5766057,18.0802495 22.6957104,18.5137024 22.903639,18.8912519 C22.3832119,19.161046 21.6072142,19.5017318 20.6483202,19.7379028 C19.7992447,19.9469324 18.9554179,20.0425351 18.119666,20.0267363 C18.0756578,20.0218752 18.0308422,20.021065 17.9856227,20.0234956 C16.5143764,19.9740738 15.0681623,19.5762695 13.6627264,18.8312977 C13.2581741,18.6170019 12.7571267,18.7725588 12.5435456,19.1784651 C12.3299646,19.5843714 12.4845989,20.0870957 12.8891512,20.3013915 C13.698256,20.7299832 14.4899996,21.0394766 15.2526737,21.256203 C14.5731711,21.7394827 13.8839786,22.398169 13.3558803,23.2849243 C12.3344058,25.0005064 12.1664479,27.1167284 12.8572554,29.5748516 C14.8412577,36.6372972 17.6589931,42.6120597 17.6872553,42.6716088 C17.8289697,42.9705698 18.126126,43.1455713 18.4357983,43.1455713 C18.554903,43.1455713 18.6760265,43.1196451 18.7910938,43.0649572 C19.2041248,42.8676754 19.3797538,42.3718377 19.18313,41.9574244 C19.1552716,41.8990906 16.3960792,36.0450467 14.4516439,29.1239797 C13.8916498,27.1296915 13.9986421,25.4570497 14.7697948,24.1514249 C15.7985368,22.4103218 17.7393384,21.7937656 18.1406608,21.6823641 C18.2000113,21.6835794 18.2593618,21.6839845 18.3179048,21.6839845 C19.3886362,21.6839845 20.3382441,21.5308582 21.1166642,21.3339815 C22.5838731,20.9625084 23.6731767,20.387677 24.2158098,20.0607644 C24.521041,20.185534 24.8541305,20.2548055 25.2037735,20.2548055 C25.6131708,20.2548055 26.0217606,20.1575824 26.3859385,19.9732637 L26.4561901,19.9376152 L26.4981796,19.9052075 C26.7416377,19.7488404 28.8927904,18.4501023 33.0606487,18.4501023 L33.1082906,18.4501023 C34.3998704,18.4501023 35.4512221,17.3956371 35.4512221,16.0993296 C35.4512221,14.8034271 34.3998704,13.7485568 33.1082906,13.7485568" id="Fill-10" fill="#000B38" mask="url(#mask-2)"></path>
            </g>
            <g id="Group-4" transform="translate(46.3418, 7.9164)">
                <path d="M67.6581638,10.1302114 L67.6581638,5.75267335 L66.5568401,5.75267335 L65.2754923,9.07832722 L63.9729652,5.75267335 L62.8610518,5.75267335 L62.8610518,10.1302114 L63.5811481,10.1302114 L63.5811481,6.47517963 L63.6023274,6.47517963 L65.0319303,10.1302114 L65.4872853,10.1302114 L66.9168882,6.47517963 L66.9380675,6.47517963 L66.9380675,10.1302114 L67.6581638,10.1302114 Z M61.9715211,6.33705343 L60.6054561,6.33705343 L60.6054561,10.1302114 L59.8853598,10.1302114 L59.8853598,6.33705343 L58.5192948,6.33705343 L58.5192948,5.75267335 L61.9715211,5.75267335 L61.9715211,6.33705343 Z" id="™" fill="#51576F" fill-rule="nonzero"></path>
                <g id="Group-3">
                    <mask id="mask-4" fill="white">
                        <use xlink:href="#path-3"></use>
                    </mask>
                    <g id="Clip-2"></g>
                    <polygon id="Fill-1" fill="#000B38" mask="url(#mask-4)" points="-0.0264741279 23.1272841 57.8459695 23.1272841 57.8459695 -0.0354169741 -0.0264741279 -0.0354169741"></polygon>
                </g>
            </g>
        </g>
    </g>
</svg>