<svg width="206" height="52" viewBox="0 0 206 52" fill="none" xmlns="http://www.w3.org/2000/svg">
<mask id="mask0_948_454" style="mask-type:luminance" maskUnits="userSpaceOnUse" x="58" y="15" width="134" height="30">
<path d="M191.78 15.7733H58.1162V44.2386H191.78V15.7733Z" fill="white"/>
</mask>
<g mask="url(#mask0_948_454)">
<path d="M67.6393 24.4295C65.8661 22.9817 64.3864 21.8628 64.3864 20.1168C64.3864 18.5374 65.7656 17.4185 67.4733 17.4185C69.741 17.4185 70.8884 19.2961 70.9231 21.139C70.9541 21.3364 71.0545 21.4679 71.2862 21.4679C71.943 21.4679 73.6507 20.6124 73.6507 19.2612C73.6507 17.4496 71.1202 15.7733 67.9021 15.7733C64.1933 15.7733 61.6976 18.0458 61.6976 20.9065C61.6976 23.5739 63.9305 25.2192 65.9008 26.8297C67.5119 28.1458 68.8563 29.0672 68.8563 31.0106C68.8563 32.9539 67.5079 34.2043 65.4411 34.2043C62.2539 34.2043 60.7432 31.5719 60.8438 28.6762C60.8128 28.4129 60.6815 28.3162 60.4806 28.3162C59.789 28.3162 58.1162 29.3343 58.1162 31.2777C58.1162 33.6469 60.581 36.0818 64.8809 36.0818C69.741 36.0818 71.7461 32.8572 71.7461 30.2906C71.7461 27.7239 69.8067 26.2102 67.6393 24.4333V24.4295Z" fill="#000A38"/>
<path d="M113.516 21.5994C112.168 21.5994 110.986 23.179 110.001 25.5829C110.229 24.561 110.364 23.7713 110.364 23.4771C110.364 22.3893 109.05 21.5685 108.359 21.5685C108.096 21.5685 107.934 21.6653 107.934 21.9324C107.934 22.9505 106.226 30.7899 105.913 32.9267C105.639 33.0739 105.384 33.1552 105.175 33.1552C104.716 33.1552 104.418 32.7255 104.418 31.7073C104.418 29.3032 105.863 24.0073 106.029 23.3802C106.06 23.2487 106.06 23.1169 106.06 23.0512C106.06 22.6253 105.732 22.4241 105.338 22.4241C104.975 22.4241 104.418 22.5905 103.827 22.9505C102.807 22.1608 101.397 21.5685 100.018 21.5685C96.34 21.5685 93.3844 26.1444 93.3844 30.8169C93.3844 31.0996 93.4039 31.3743 93.4385 31.6415C92.5693 32.5513 91.6035 33.0545 91.0897 33.0545C90.7266 33.0545 90.3324 32.8262 90.3324 32.1022C90.3324 30.6853 91.7116 26.3418 91.7116 24.5996C91.7116 23.0512 90.5952 21.6034 89.0189 21.6034C87.0796 21.6034 85.3411 23.6125 83.9927 26.8025C84.2245 25.8152 84.4177 24.925 84.4177 24.3325C84.4177 22.9505 83.1042 21.5994 81.6902 21.5994C79.9478 21.5994 78.1089 23.7713 76.664 27.1625C77.058 25.4203 77.3865 23.872 77.3865 23.4423C77.3865 22.5208 76.0073 21.5337 75.3157 21.5337C75.0877 21.5337 74.9217 21.6653 74.9217 21.9285C74.9217 23.0472 73.0171 32.0325 73.0171 33.3796C73.0171 34.2662 74.3306 35.4856 75.0531 35.4856C75.25 35.4856 75.447 35.3541 75.4779 35.0559C76.5288 27.9793 79.5498 23.7016 81.0296 23.7016C81.4893 23.7016 81.6864 24.1971 81.6864 24.952C81.6864 27.2244 80.1758 31.8969 80.1758 33.7048C80.1758 34.4288 81.4236 35.4818 82.146 35.4818C82.4088 35.4818 82.571 35.3849 82.6367 35.0521C83.9503 26.7599 87.1684 23.6978 88.1883 23.6978C88.5514 23.6978 88.6828 24.0267 88.6828 24.5532C88.6828 26.1984 87.3036 29.9497 87.3036 31.9899C87.3036 33.8017 88.3235 35.447 90.0311 35.447C91.422 35.447 92.8553 34.3437 93.8403 33.19C94.447 34.603 95.6097 35.5129 97.0894 35.5129C98.994 35.5129 100.505 33.8984 101.59 31.3319C101.559 31.7924 101.525 32.1524 101.525 32.3847C101.525 34.061 102.904 35.447 104.283 35.447C104.978 35.447 105.705 35.114 106.373 34.6263C106.798 35.1411 107.401 35.5129 107.86 35.5129C108.154 35.5129 108.351 35.3811 108.386 35.0521C108.552 33.9022 108.811 32.5202 109.108 31.1034C109.896 27.5806 110.947 24.0267 113.018 24.0267C113.543 24.0267 113.937 24.29 114.301 24.7197C114.791 24.7506 115.12 24.1583 115.12 23.4693C115.12 22.6486 114.695 21.5918 113.509 21.5918L113.516 21.5994ZM102.386 25.8114C101.235 30.3524 99.0675 33.2481 97.6573 33.2481C96.9348 33.2481 96.4752 32.3925 96.4752 30.9757C96.4752 27.5185 98.3797 23.1093 100.582 23.1093C101.401 23.1093 102.158 23.7364 102.684 24.4913C102.587 24.8553 102.487 25.312 102.386 25.8076V25.8114Z" fill="#000A38"/>
<path d="M191.764 23.8369C191.961 22.6872 190.384 21.4988 189.531 21.4988C189.236 21.4988 189.041 21.6303 189.041 21.9942C189.041 22.3233 188.944 23.0472 188.777 23.9376C187.793 28.7108 184.903 33.2828 183.095 33.2828C182.634 33.2828 182.21 33.0854 182.21 32.2298C182.21 30.6156 183.721 24.7583 183.721 23.8369C183.721 22.6872 182.21 21.4988 181.421 21.4988C181.124 21.4988 180.93 21.6303 180.93 21.9942C180.93 23.5698 179.239 30.2013 179.162 32.2841C178.556 32.7757 177.975 33.0506 177.55 33.0506C177.06 33.0506 176.763 32.7873 176.763 32.164C176.763 30.6504 178.207 26.3377 178.207 24.6924C178.207 23.0472 176.727 21.5993 175.12 21.5993C173.019 21.5993 170.917 23.9686 169.372 27.2281C169.832 25.4861 170.226 23.8717 170.226 23.442C170.226 22.5208 168.781 21.5336 168.058 21.5336C167.827 21.5336 167.664 21.6652 167.664 21.9285C167.664 22.9388 165.995 30.3949 165.679 32.8027C165.366 32.9653 165.076 33.0544 164.84 33.0544C164.346 33.0544 164.052 32.7911 164.052 32.168C164.052 30.6542 165.497 26.3417 165.497 24.6964C165.497 23.0512 164.017 21.6033 162.41 21.6033C160.309 21.6033 158.207 23.9724 156.662 27.2321C157.121 25.49 157.515 23.8757 157.515 23.446C157.515 22.5246 156.071 21.5374 155.348 21.5374C155.116 21.5374 154.954 21.669 154.954 21.9323C154.954 22.9582 153.246 30.5808 152.961 32.888C152.652 33.0582 152.366 33.1511 152.134 33.1511C151.639 33.1511 151.346 32.888 151.346 32.2298C151.346 30.6813 152.856 24.7932 152.856 23.8717C152.856 22.722 151.311 21.5026 150.558 21.5026C150.295 21.5026 150.098 21.6342 150.098 21.9982C150.098 22.3271 150.032 23.0163 149.901 23.806C148.916 28.676 146.057 33.2828 144.218 33.2828C143.758 33.2828 143.364 33.0854 143.364 32.2298C143.364 30.6156 144.809 24.7583 144.809 23.8369C144.809 22.6872 143.264 21.4988 142.541 21.4988C142.244 21.4988 142.051 21.6303 142.051 21.9942C142.051 23.6086 140.308 30.4839 140.308 32.3924C140.308 33.8403 141.262 35.5204 143.329 35.5204C145.396 35.5204 147.27 33.4454 148.715 30.4839C148.583 31.3394 148.518 32.0634 148.518 32.4931C148.518 34.0415 149.669 35.4545 151.014 35.4545C151.871 35.4545 152.713 35.0869 153.459 34.5565C153.896 35.0753 154.502 35.4856 154.919 35.4856C155.147 35.4856 155.313 35.354 155.344 35.0559C156.658 27.2902 160.27 23.7015 161.815 23.7015C162.31 23.7015 162.507 24.0653 162.507 24.6576C162.507 26.3688 160.996 29.8916 160.996 32.0943C160.996 33.8403 161.881 35.4507 163.658 35.4507C164.52 35.4507 165.377 35.0675 166.142 34.5217C166.579 35.0559 167.205 35.4856 167.634 35.4856C167.862 35.4856 168.028 35.354 168.058 35.0559C169.372 27.2902 172.984 23.7015 174.529 23.7015C175.025 23.7015 175.221 24.0653 175.221 24.6576C175.221 26.3688 173.711 29.8916 173.711 32.0943C173.711 33.8403 174.595 35.4507 176.372 35.4507C177.497 35.4507 178.622 34.8004 179.537 33.9758C179.98 34.8506 180.842 35.5514 182.184 35.5514C184.385 35.5514 186.224 33.4454 187.67 30.449C187.371 32.3228 187.042 34.301 186.583 36.0778C183.366 36.9334 180.178 39.7981 180.178 41.97C180.178 43.352 181.426 44.2424 183.068 44.2424C186.286 44.2424 188.094 41.1492 189.242 36.9683C189.535 36.9683 189.833 36.9993 190.094 37.065C190.327 37.065 190.358 36.9683 190.358 36.8367C190.358 36.6082 190.06 36.2442 189.503 36.016C189.736 35.0597 189.933 34.0415 190.129 33.0196L191.772 23.8369H191.764ZM182.634 42.6938C182.175 42.6938 181.877 42.4655 181.877 41.9351C181.877 40.7504 183.816 38.7103 186.181 37.6573C185.328 40.553 184.212 42.6938 182.634 42.6938Z" fill="#000A38"/>
<path d="M139.288 20.8755C139.288 18.1115 136.202 15.7732 131.145 15.7732C130.693 15.7732 130.244 15.7925 129.804 15.8313C129.051 15.8932 128.417 16.4313 128.228 17.163L127.783 18.8818L125.968 27.2475L125.805 27.9986C125.149 30.5149 123.491 32.1293 123.453 32.1718C122.68 32.7332 121.745 33.1783 120.81 33.1783C119.724 33.1783 119.396 32.6171 119.396 31.6299C119.396 30.2826 120.215 26.2334 120.841 23.1711C121.861 23.1402 122.614 23.0744 122.811 23.0744C124.059 22.9777 124.585 22.2847 124.585 21.8588C124.585 21.6924 124.484 21.5955 124.322 21.5955C123.827 21.5955 122.549 21.5955 121.169 21.6265C121.401 20.5077 121.533 19.7179 121.533 19.4548C121.533 18.2044 120.088 16.9849 119.331 16.9849C119.068 16.9849 118.871 17.1165 118.871 17.4766C118.871 18.1037 118.573 19.7141 118.179 21.6575H116.866C116.503 21.6575 116.34 21.8898 116.34 22.1529C116.34 22.6137 116.765 23.2408 117.295 23.2408H117.886C117.198 26.6631 116.406 30.48 116.406 31.7963C116.406 33.8713 118.376 35.5166 120.316 35.5166C122.112 35.5166 124.098 33.7552 125.129 32.404C125.338 34.6456 127.169 36.0121 130.627 36.0121C135.159 36.0121 138.937 33.4454 138.937 29.9885C138.937 27.3561 136.604 26.1056 133.945 25.5133C136.87 24.8552 139.3 23.2756 139.3 20.8717L139.288 20.8755ZM135.839 29.8607C135.839 32.7564 132.949 34.4017 130.453 34.4017C128.877 34.4017 128.023 33.7784 128.023 32.2609C128.023 31.7345 128.154 31.2427 128.22 30.9097L129.074 26.7288C130.028 26.632 131.11 26.5662 131.67 26.5662C134.266 26.5662 135.842 27.7509 135.842 29.8567L135.839 29.8607ZM129.402 25.2539L131.013 17.4223H131.145C134.332 17.4223 136.464 18.7076 136.464 20.7787C136.464 23.6745 132.261 25.0564 129.402 25.2539Z" fill="#000A38"/>
</g>
<path d="M199.457 26.8666V21.4933H200.793L202.206 25.1607L203.589 21.4933H204.911V26.8666H203.913V22.8084L202.311 26.8666H201.989L200.358 22.8084V26.8666H199.457Z" fill="#000A38"/>
<path d="M196.149 26.8666V22.2823H194.653V21.4933H198.652V22.2823H197.156V26.8666H196.149Z" fill="#000A38"/>
<mask id="mask1_948_454" style="mask-type:luminance" maskUnits="userSpaceOnUse" x="0" y="0" width="52" height="52">
<path d="M52 0H0V52H52V0Z" fill="white"/>
</mask>
<g mask="url(#mask1_948_454)">
<path d="M26.0183 51.965C40.3681 51.965 52.0015 40.3315 52.0015 25.9818C52.0015 11.632 40.3681 0 26.0183 0C11.6685 0 0.0351562 11.6334 0.0351562 25.9832C0.0351562 40.3329 11.6685 51.9664 26.0183 51.9664V51.965Z" fill="#F72697"/>
<mask id="mask2_948_454" style="mask-type:luminance" maskUnits="userSpaceOnUse" x="0" y="0" width="52" height="53">
<path d="M25.9832 52C40.3329 52 51.9664 40.3666 51.9664 26.0168C51.9664 11.667 40.3329 0.0350342 25.9832 0.0350342C11.6334 0.0350342 0 11.6684 0 26.0182C0 40.3679 11.6334 52.0014 25.9832 52.0014V52Z" fill="white"/>
</mask>
<g mask="url(#mask2_948_454)">
<path d="M42.2328 31.0435C41.706 28.8314 40.2897 25.9385 36.5365 23.6562C36.5365 23.6562 33.4181 21.8322 28.3762 23.0048L31.3741 22.6112C31.3741 22.6112 29.7448 7.89014 23.7516 7.89014C21.6782 7.89014 20.7831 9.4886 20.4973 11.5788C18.3818 9.86827 16.1095 9.27847 14.0445 11.3434C7.82298 17.5649 24.4675 25.35 24.4675 25.35C24.4675 25.35 23.1072 27.485 22.9952 29.3441C22.9671 29.8191 22.6253 30.2155 22.1587 30.3065C20.161 30.6987 15.3964 31.6444 14.7702 31.8462C10.9148 33.0888 7.53159 35.8051 5.45679 39.2782C2.55966 44.1283 1.62523 51.6301 6.29035 55.749C11.6251 60.4575 21.4037 59.1869 26.8463 55.3538C28.0708 54.491 29.2335 53.4962 30.2015 52.3503C34.9731 46.2169 32.6419 39.0274 32.6419 39.0274L30.9581 38.1784C31.2788 38.3171 31.639 38.4629 32.0299 38.6001C32.2568 38.6799 32.4921 38.7556 32.7372 38.8284C35.1455 39.5387 38.3718 39.7852 40.6721 37.2859C42.2118 35.6119 42.7623 33.257 42.2356 31.0449L42.2328 31.0435Z" fill="white"/>
<path d="M29.9713 52.1864C29.3886 52.5759 28.6363 52.3503 27.7705 52.3503L28.0269 51.7409C29.8481 47.4119 29.8202 42.209 28.3645 37.7427C28.4276 37.9375 30.0079 38.2415 30.2488 38.3116C30.8203 38.4781 31.3751 38.6352 31.9579 38.7612C33.1627 39.0203 33.0464 40.1803 33.0773 41.1946C33.1123 42.3686 33.017 43.544 32.8181 44.7011C32.4119 47.0687 31.5825 49.3508 30.5262 51.5027C30.3636 51.8319 30.1788 52.0477 29.9713 52.185V52.1864Z" fill="#E5E5E5"/>
<path d="M22.0799 24.1593C22.0799 24.1593 21.9313 19.008 19.5398 16.6167C17.9077 14.9846 14.8314 14.2785 12.6039 13.6845C12.7187 13.7251 12.559 13.5724 12.6039 13.6845C12.6459 13.7882 12.9765 15.7579 13.2595 16.4486C13.8353 17.8495 14.9294 18.9548 16.0432 19.9438C17.8504 21.5494 19.8607 22.834 21.9299 24.0711C21.9383 24.0766 22.0728 24.1649 22.0799 24.1579V24.1593Z" fill="#FFC01B"/>
<path d="M31.9247 27.7512C30.6134 27.7512 29.4367 28.5316 28.9253 29.7392C28.7081 30.2519 28.9477 30.8431 29.4604 31.0603C29.9731 31.2773 30.5644 31.0378 30.7816 30.5251C30.9762 30.0656 31.4246 29.7673 31.9233 29.7673C32.422 29.7673 32.8718 30.0656 33.0651 30.5265C33.2276 30.9118 33.6017 31.1442 33.9953 31.1442C34.1257 31.1442 34.2586 31.1191 34.3862 31.0659C34.8989 30.8501 35.1412 30.2588 34.9256 29.7461C34.4157 28.5343 33.2387 27.7526 31.9247 27.7526V27.7512Z" fill="#0D1435"/>
<path d="M43.1098 30.8095C42.3237 27.5103 40.3009 24.812 37.4136 23.2135C35.8137 22.3281 34.0247 21.814 32.1655 21.6852C31.9778 20.3754 31.5268 17.6799 30.6679 14.9481C28.987 9.59507 26.6236 6.88147 23.6466 6.88147C21.3322 6.88147 20.2506 8.41689 19.7464 9.90608C19.0388 9.49281 18.3439 9.22242 17.6645 9.09915C16.0548 8.80635 14.5194 9.3359 13.2263 10.629C11.9333 11.922 11.3337 13.5009 11.6041 15.1638C12.369 19.8654 19.8906 24.1915 22.9293 25.7605C22.4544 26.6263 21.8912 27.8885 21.8212 29.1115C19.9466 29.361 16.3112 30.2756 16.0842 30.3387C10.9596 31.7804 7.28777 34.047 5.17236 37.0745C2.74032 40.5545 1.57335 45.2182 2.05106 49.547C2.56101 54.1813 5.75233 58.01 10.1793 59.3017C11.8198 59.7808 13.6242 60.019 15.4748 60.019C17.474 60.019 19.5278 59.7402 21.4891 59.184C25.5293 58.0381 28.872 55.8232 30.9047 52.9457C34.6789 48.0803 34.3007 42.6685 33.837 40.1439C36.9163 40.6918 39.4785 39.9492 41.3068 37.9626C43.0509 36.0672 43.7248 33.3915 43.1084 30.8054L43.1098 30.8095ZM23.6466 8.89741C27.4514 8.89741 29.5094 17.5034 30.1329 21.6977C29.7042 21.7327 29.2742 21.7846 28.844 21.8589C28.313 20.7704 27.2035 18.6101 25.7382 16.363C24.2797 14.1257 22.8549 12.3956 21.475 11.1767C21.6531 10.2339 22.1082 8.89741 23.6466 8.89741ZM13.5948 14.8402C13.5948 14.8332 13.5934 14.8262 13.592 14.8192C16.3813 15.4076 20.266 16.639 21.1206 22.4375C17.439 20.1987 14.0011 17.3353 13.5948 14.8402ZM32.9166 37.859C32.6923 37.7931 32.4723 37.7217 32.2581 37.6475C30.86 37.1572 29.8723 36.5618 29.8415 36.5436C29.3666 36.2522 28.7459 36.4006 28.4545 36.8755C28.1631 37.3504 28.3117 37.9711 28.7866 38.2625C28.8343 38.292 29.962 38.9798 31.5899 39.5514C31.6067 39.557 31.6249 39.5639 31.6431 39.5696C31.9681 40.7968 33.2317 46.6792 29.3007 51.731C29.2908 51.7437 29.2811 51.7563 29.2712 51.7704C27.5048 54.2808 24.546 56.2268 20.94 57.248C17.5203 58.2175 13.8049 58.2622 10.7453 57.3699C7.10284 56.3065 4.47749 53.1517 4.0558 49.3298C3.63132 45.4716 4.66661 41.3236 6.82546 38.233C8.66629 35.5978 11.9655 33.596 16.6306 32.2832C16.9949 32.1809 20.685 31.2718 22.2441 31.094C23.138 30.9915 23.8202 30.2365 23.8315 29.3384C23.8454 28.2234 24.6188 26.8407 24.9507 26.2971C25.1637 25.9482 25.2211 25.5237 25.1091 25.1301C24.997 24.7378 24.7224 24.4073 24.3553 24.2251C23.9981 24.0471 23.6353 23.8594 23.2697 23.6633C22.7667 15.2535 17.275 13.5387 14.0123 12.8481C14.179 12.5805 14.3919 12.3157 14.6525 12.0565C15.3348 11.3743 16.0436 11.038 16.8071 11.038C16.9697 11.038 17.1364 11.0534 17.3045 11.0843C18.0848 11.2258 18.8917 11.6657 19.693 12.3045C19.7351 12.3451 19.7814 12.3829 19.8318 12.4166C23.0666 15.0825 26.2088 20.8978 27.3548 23.4224C27.5537 23.8594 28.0343 24.0961 28.5008 23.9883C31.2928 23.3397 34.1102 23.6912 36.437 24.9788C38.8229 26.2999 40.4956 28.5371 41.1484 31.2773C41.1905 31.4526 41.2213 31.6276 41.2479 31.8041C40.8752 32.0549 40.4802 32.3198 40.4802 32.3198C39.4071 33.0412 39.2138 34.1857 40.0151 35.06C40.0151 35.06 40.2701 35.3541 40.5251 35.6497C40.3261 35.9887 40.0935 36.3082 39.8231 36.6023C38.2416 38.3213 35.9173 38.7444 32.915 37.8604L32.9166 37.859Z" fill="#0D1435"/>
<path d="M16.6995 42.6404C16.2751 43.0004 16.2218 43.6365 16.5833 44.061C16.6085 44.0903 19.0405 47.0196 17.0218 49.7725C14.8769 52.6977 9.53095 52.3195 9.47771 52.3153C8.92154 52.269 8.43681 52.685 8.39199 53.2399C8.34717 53.7947 8.76183 54.2807 9.3166 54.3256C9.37124 54.3298 9.67805 54.3522 10.1572 54.3522C12.0064 54.3522 16.4138 54.0131 18.6483 50.9647C21.0089 47.7468 19.336 44.1884 18.1215 42.7567C17.7615 42.3322 17.1254 42.279 16.7009 42.6404H16.6995Z" fill="#0D1435"/>
</g>
</g>
</svg>
