<svg width="161" height="73" viewBox="0 0 161 73" fill="none" xmlns="http://www.w3.org/2000/svg">
<path d="M19.4759 46.1996C19.8218 46.2464 20.0906 46.6278 20.2824 47.3438C20.3251 47.5029 20.3653 47.682 20.4032 47.8811C20.476 48.3267 20.5321 48.8542 20.5714 49.4638L20.5817 49.5889C20.6932 51.2488 20.5178 52.9662 20.0555 54.741C18.994 58.7925 17.1651 61.3249 14.5687 62.3384C14.401 62.4066 14.2303 62.464 14.0568 62.5105C13.9194 62.5473 13.78 62.5769 13.6387 62.5992C11.4839 62.9751 9.38074 61.8373 7.32933 59.1857C5.87204 57.3051 4.78157 55.2604 4.05792 53.0514C3.96982 52.7805 3.88702 52.5004 3.80951 52.2111C3.69712 51.7917 3.5999 51.3565 3.51785 50.9057C3.35079 49.9351 3.26275 48.9123 3.25375 47.8373C3.2418 45.5074 3.68008 43.5995 4.56859 42.1135C5.3618 40.7925 6.4599 39.9441 7.86288 39.5682C8.03645 39.5217 8.21556 39.4814 8.40024 39.4474C8.48896 39.4314 8.58226 39.418 8.68015 39.4073C9.89524 39.198 11.1279 39.5459 12.3781 40.4511C13.5674 41.3028 14.3613 42.3419 14.7597 43.5684C14.7766 43.6026 14.7909 43.6414 14.8025 43.6848C14.8141 43.7282 14.8221 43.7725 14.8265 43.8179C14.9207 44.343 14.7664 44.9385 14.3635 45.6045C14.1551 45.9549 13.9207 46.165 13.6604 46.2348L13.5844 46.2551C13.4215 46.2833 13.2541 46.2661 13.0823 46.2036C12.5192 45.9824 11.9379 45.3747 11.3382 44.3805C11.2091 44.1593 11.1093 44.0039 11.0388 43.9143C10.474 43.0502 9.86661 42.6781 9.21665 42.798C9.15685 42.8063 9.10165 42.8172 9.05102 42.8308C8.24105 43.0478 7.62342 43.7947 7.19814 45.0713C6.69164 46.5944 6.6132 48.3556 6.96284 50.3547C7.04682 50.8127 7.14914 51.2814 7.2698 51.7606L7.29596 51.8583C7.69127 53.3336 8.46265 54.9251 9.61011 56.633C11.0784 58.8439 12.4608 59.8377 13.7574 59.6143C13.81 59.6079 13.8616 59.598 13.9122 59.5844C14.3172 59.4759 14.7136 59.234 15.1013 58.8589C16.5609 57.4214 17.3107 54.434 17.3506 49.8966C16.6318 50.1357 15.7807 50.4452 14.7973 50.8249C14.6348 50.884 14.4148 50.9739 14.1371 51.0948C13.8812 51.2099 13.6484 51.2956 13.4386 51.3518C13.3446 51.377 13.2569 51.3966 13.1754 51.4107C13.0867 51.4267 13.0042 51.4372 12.928 51.4421C12.5432 51.4522 12.1685 51.3123 11.804 51.0224C11.4579 50.7431 11.2451 50.4552 11.1657 50.1587L11.1395 50.061C11.1215 49.9651 11.1181 49.8653 11.129 49.7616C11.1959 49.2011 11.6843 48.7098 12.5943 48.2876L13.0889 48.0505C14.8188 47.2459 16.2045 46.7041 17.2459 46.4251C17.4918 46.3592 17.7179 46.3063 17.9242 46.2665C18.5091 46.1641 19.0263 46.1418 19.4759 46.1996ZM26.0094 53.2852C26.4722 53.1612 26.8083 52.8967 27.0176 52.4918C27.2129 52.1217 27.2732 51.7102 27.1984 51.2575C27.1863 51.1832 27.1705 51.1099 27.1511 51.0376C27.0581 50.6905 26.889 50.4064 26.6437 50.1853C26.3154 49.8857 25.9193 49.7671 25.4554 49.8294C25.3956 49.8376 25.3404 49.8485 25.2898 49.8621C25.0005 49.9396 24.8083 50.119 24.7132 50.4003C24.6127 50.6908 24.6206 51.0529 24.7369 51.4868C24.9966 52.4559 25.4207 53.0554 26.0094 53.2852ZM34.403 50.0711C34.8262 49.5391 35.1717 49.2373 35.4393 49.1656C35.7068 49.0939 35.8949 49.2606 36.0034 49.6655C36.1573 50.9342 35.8179 52.401 34.985 54.0659C34.1695 55.6796 33.2177 56.857 32.1296 57.5981C31.7209 57.8084 31.3032 57.9707 30.8765 58.085C28.7575 58.6528 26.4833 57.9755 24.0537 56.0532C23.2272 55.3987 22.6231 54.3592 22.2414 52.9345C22.0805 52.3343 21.9584 51.6616 21.8751 50.9166C21.7254 49.577 22.5247 48.4521 24.2728 47.5419C24.5104 47.4162 24.7522 47.3204 24.998 47.2545C25.6706 47.0743 26.3579 47.1227 27.06 47.3996C27.8571 47.7131 28.6214 48.2951 29.3531 49.1454C29.5943 49.5536 29.7662 49.9493 29.8689 50.3326C30.1731 51.468 29.8867 52.5253 29.0096 53.5044C28.8671 53.6666 28.6647 53.8371 28.4026 54.0159C28.1082 54.2188 27.9323 54.3434 27.8749 54.3898C27.7444 54.51 27.6956 54.6316 27.7285 54.7546L27.7343 54.7763C27.7895 54.9243 27.9713 55.0964 28.2797 55.2928C28.9332 55.7068 29.589 55.8256 30.2471 55.6493C30.4351 55.5989 30.6246 55.5249 30.8154 55.4273C31.6112 55.0125 32.2984 54.1928 32.8771 52.9681C33.6579 51.3404 34.1665 50.3748 34.403 50.0711ZM45.9144 42.15C46.0993 42.3484 46.2199 42.5525 46.2761 42.7623C46.3207 42.9286 46.3262 43.0938 46.2926 43.2578C46.1622 43.9283 45.5295 44.5319 44.3944 45.0686C43.6916 45.3964 42.6 45.8207 41.1195 46.3414L40.6943 46.4902C40.7007 46.5428 40.7286 46.6903 40.7781 46.9328C40.8902 47.5539 40.9918 48.0344 41.0829 48.3742C41.1217 48.5189 41.1572 48.6372 41.1897 48.7293C41.4804 49.4963 41.7965 50.4735 42.138 51.6609L42.2688 52.1491C42.7125 53.8052 42.806 54.718 42.5491 54.8876C42.5463 54.9349 42.3641 55.0069 42.0025 55.1038C41.1274 55.3383 40.644 55.4291 40.5523 55.3761C39.786 54.9459 39.1325 53.7219 38.5918 51.7042C38.4271 51.0895 38.2748 50.4056 38.135 49.6524C38.1055 49.5131 38.0732 49.3783 38.0384 49.2482C37.8698 48.619 37.6313 48.2062 37.3229 48.0098C37.0511 47.8346 36.5573 47.8429 35.8413 48.0347L35.6461 48.087C35.5323 48.1253 35.4248 48.158 35.3235 48.1851C34.839 48.3149 34.4585 48.3704 34.1822 48.3514C33.6367 48.3115 33.1808 48.0423 32.8147 47.5435L32.7972 47.4784C32.7255 47.2109 32.7559 46.9625 32.8882 46.7332C33.1808 46.2053 33.8767 45.794 34.976 45.4995C35.2219 45.4336 35.4345 45.3882 35.6139 45.3634C35.7551 45.3411 35.8836 45.3144 35.9994 45.2834C36.2742 45.2097 36.5246 45.0884 36.7505 44.9193C36.408 43.988 36.1127 43.0595 35.8646 42.1338C35.6728 41.4178 35.5092 40.7059 35.3738 39.9981C34.9743 37.8418 34.9988 36.3277 35.4472 35.4557C35.6652 35.0252 35.9875 34.7528 36.4142 34.6385L36.5226 34.6094C36.6962 34.5629 36.8665 34.5909 37.0335 34.6935C37.4061 34.9269 37.7735 35.7198 38.1359 37.0722C38.3491 37.8677 38.5591 38.8539 38.7659 40.0309C38.9024 40.8005 38.998 41.302 39.0528 41.5353C39.1153 41.7976 39.2027 42.1385 39.3151 42.5579L39.661 43.8488C39.692 43.9645 39.9281 43.9633 40.3692 43.8451C40.4633 43.8199 40.5672 43.7882 40.6809 43.7499C41.3438 43.5335 42.1481 43.194 43.0938 42.7313C43.1405 42.7033 43.2448 42.6444 43.4068 42.5545C43.9789 42.2306 44.4276 42.0251 44.7531 41.9379C45.2737 41.7984 45.6609 41.8691 45.9144 42.15ZM68.541 24.6117C69.011 24.4857 69.5218 24.5117 70.0733 24.6894C70.5224 24.8326 70.7867 25.0525 70.8662 25.349C70.9069 25.5008 70.8989 25.6735 70.8422 25.867C70.6381 26.5805 70.0886 27.2199 69.1937 27.7853C68.7373 28.0781 67.9789 28.4441 66.9184 28.8833C66.8552 28.9079 66.7586 28.9377 66.6284 28.9726C66.4982 29.0075 66.3309 29.0484 66.1265 29.0954C65.5638 29.223 65.1957 29.31 65.0221 29.3565C64.0748 29.6103 63.5465 29.8953 63.4374 30.2113C63.2 30.8872 63.2847 31.9846 63.6917 33.5033L63.7149 33.59C63.8578 34.0943 64.0544 34.7121 64.3046 35.4435C64.6351 36.4168 64.8079 36.9169 64.8229 36.9439C66.0501 40.8007 66.785 43.1384 67.0276 43.957C67.0721 44.1233 67.1694 44.3996 67.3194 44.7857C67.4679 45.1954 67.5739 45.5042 67.6374 45.712L67.7042 45.9615C67.8786 46.6124 67.9072 47.124 67.79 47.4965C67.6395 47.9476 67.1878 48.3012 66.4348 48.5572L66.3806 48.5717C65.9973 48.6744 65.631 48.4354 65.2816 47.8547C65.2424 47.7954 65.0171 47.3016 64.6056 46.3732C63.8019 44.5888 62.9424 42.0752 62.027 38.8325C61.8977 38.3788 61.7526 37.8519 61.5917 37.2516C61.2158 35.8486 60.7533 34.0503 60.2043 31.8566L60.2014 31.8457C60.1161 31.5275 59.7552 31.3956 59.1187 31.4499C58.9157 31.4733 58.5049 31.5601 57.8863 31.7103L57.832 31.7249C57.5861 31.7908 57.1448 31.9516 56.508 32.2075C55.662 32.5505 55.0332 32.7926 54.6215 32.9339C54.338 33.0331 54.0698 33.1166 53.8166 33.1845C52.6306 33.5023 51.8319 33.4721 51.4206 33.094C51.1531 32.8479 50.9845 32.5947 50.9147 32.3343C50.7422 31.6907 51.217 31.0325 52.3389 30.3598C53.2488 29.8215 54.3382 29.3746 55.6072 29.0191C57.149 28.5827 59.307 27.8572 62.0813 26.8425C65.0451 25.7538 67.1983 25.0102 68.541 24.6117ZM84.7901 42.1391L84.8134 42.2259C84.9779 43.0422 84.7057 43.5453 83.997 43.7352C83.1943 43.9503 82.3094 43.8153 81.3423 43.3303C80.4035 42.6905 79.4436 41.3355 78.4626 39.2653C78.3045 38.9356 78.215 38.7464 78.1942 38.6977C78.1079 39.0696 78.0051 39.8142 77.8858 40.9313C77.7261 42.4468 77.567 43.5164 77.4086 44.1402C77.134 45.1982 76.7436 45.795 76.2374 45.9306C75.7094 46.0721 75.2068 45.9897 74.7295 45.6836C74.0171 45.2234 73.5388 44.5377 73.2946 43.6264C73.2559 43.4818 73.2234 43.3316 73.1972 43.1759C73.0281 42.198 72.685 40.7436 72.1676 38.8127C71.9926 38.131 71.8519 37.5912 71.7453 37.1935C71.2123 35.0885 70.8012 33.1059 70.512 31.2456C69.9856 27.8056 70.1093 25.982 70.8831 25.7746C71.0205 25.7378 71.1669 25.749 71.3222 25.8081C71.9069 25.9072 72.3925 26.6491 72.779 28.0338L72.7993 28.1097C73.0551 29.0643 73.3135 30.5492 73.5744 32.5643C73.6722 33.3055 73.7427 33.771 73.7858 33.961C74.0885 35.4378 74.4007 36.7765 74.7224 37.977C74.8658 38.5122 75.0087 39.0165 75.151 39.4899C75.4509 38.96 75.6393 38.0724 75.7165 36.827C75.7631 35.9309 75.8501 35.272 75.9774 34.8503C76.1815 34.1368 76.5696 33.56 77.1415 33.12C77.2687 33.0161 77.401 32.9458 77.5384 32.909C78.1676 32.7404 78.8402 33.2113 79.5563 34.3216C80.0747 35.1283 80.6798 36.3885 81.3715 38.1021C81.4852 38.3817 81.5534 38.5495 81.5761 38.6054C82.5853 40.4045 83.6301 41.5702 84.7105 42.1023L84.7901 42.1391ZM87.6598 36.766C88.1226 36.642 88.4587 36.3775 88.668 35.9727C88.8633 35.6025 88.9236 35.1911 88.8488 34.7383C88.8367 34.664 88.8209 34.5907 88.8015 34.5184C88.7085 34.1713 88.5394 33.8872 88.2941 33.6661C87.9658 33.3665 87.5697 33.2479 87.1058 33.3102C87.046 33.3185 86.9908 33.3294 86.9402 33.3429C86.6509 33.4204 86.4587 33.5998 86.3636 33.8811C86.2631 34.1716 86.271 34.5338 86.3873 34.9677C86.647 35.9367 87.0711 36.5362 87.6598 36.766ZM96.0534 33.5519C96.4766 33.02 96.8221 32.7181 97.0897 32.6464C97.3572 32.5747 97.5453 32.7414 97.6538 33.1464C97.8077 34.4151 97.4683 35.8818 96.6354 37.5467C95.8199 39.1604 94.8681 40.3378 93.78 41.0789C93.3713 41.2892 92.9536 41.4515 92.5269 41.5659C90.4079 42.1336 88.1337 41.4563 85.7041 39.534C84.8776 38.8796 84.2735 37.84 83.8918 36.4153C83.7309 35.8151 83.6089 35.1424 83.5255 34.3974C83.3758 33.0578 84.1751 31.9329 85.9232 31.0227C86.1608 30.897 86.4026 30.8012 86.6484 30.7354C87.321 30.5551 88.0083 30.6035 88.7104 30.8805C89.5075 31.194 90.2718 31.7759 91.0035 32.6262C91.2447 33.0344 91.4166 33.4302 91.5193 33.8135C91.8235 34.9489 91.5371 36.0061 90.66 36.9852C90.5175 37.1474 90.3151 37.3179 90.053 37.4967C89.7586 37.6996 89.5827 37.8242 89.5253 37.8706C89.3948 37.9909 89.346 38.1124 89.3789 38.2354L89.3847 38.2571C89.4399 38.4051 89.6217 38.5773 89.9301 38.7737C90.5836 39.1877 91.2394 39.3065 91.8975 39.1301C92.0855 39.0798 92.275 39.0057 92.4658 38.9081C93.2616 38.4933 93.9488 37.6736 94.5275 36.4489C95.3083 34.8212 95.8169 33.8556 96.0534 33.5519ZM117.385 21.6391C117.284 21.4338 117.115 21.0915 116.878 20.6124C115.884 18.5533 115.127 17.2757 114.607 16.7796C114.408 17.6002 114.207 19.2508 114.003 21.7314C113.939 22.5316 113.891 23.0754 113.859 23.3629C114.186 23.2212 114.698 22.9637 115.396 22.5906C116.291 22.1106 116.954 21.7934 117.385 21.6391ZM126.922 28.0712C127.675 28.567 128.197 28.9814 128.487 29.3143C128.754 29.6149 128.932 29.9316 129.021 30.2642C129.095 30.539 129.105 30.8231 129.052 31.1164C128.967 31.5809 128.736 31.8636 128.36 31.9643C127.709 32.1387 126.663 31.6751 125.22 30.5733C124.332 29.8891 123.669 29.3109 123.233 28.8388C122.872 28.4471 122.35 27.8312 121.668 26.9909C120.93 26.088 120.37 25.4318 119.989 25.0223C119.642 24.6504 119.041 24.5788 118.188 24.8074C118.014 24.8539 117.771 24.9307 117.459 25.0376C117.238 25.1122 117.085 25.161 116.998 25.1843C116.151 25.4347 114.934 25.9427 113.349 26.7086C112.304 30.3293 111.634 32.4854 111.338 33.1769C110.84 34.3258 110.316 34.9739 109.766 35.1212C109.622 35.1599 109.478 35.1714 109.334 35.1557C109.108 35.1231 108.931 35.0117 108.802 34.8214C108.752 34.7496 108.712 34.6558 108.681 34.5401C108.512 33.9109 108.646 32.6192 109.084 30.665C109.377 29.3852 109.496 28.644 109.442 28.4415L109.436 28.4198C109.411 28.3567 109.312 28.3483 109.138 28.3948C109.03 28.4239 108.85 28.4914 108.6 28.5973C108.349 28.7032 108.166 28.7717 108.05 28.8027C107.775 28.8763 107.562 28.8481 107.411 28.7181C107.339 28.6521 107.29 28.5685 107.263 28.4673C107.232 28.3515 107.229 28.2126 107.256 28.0506C107.341 27.4153 107.523 26.9092 107.802 26.5322C108.044 26.2194 108.458 25.8719 109.046 25.4897C110.065 24.8369 110.775 22.7165 111.178 19.1283C111.192 18.9773 111.218 18.6682 111.255 18.2008C111.366 16.5898 111.525 15.3885 111.731 14.5969C112.091 13.1906 112.677 12.3707 113.491 12.1373C115.11 11.7032 116.332 12.4146 117.155 14.2713C118.122 16.4617 119.131 18.3616 120.182 19.9712C120.245 20.0627 120.328 20.1957 120.429 20.3702C120.634 20.7336 120.805 20.9514 120.941 21.0235C121.044 21.089 121.189 21.0966 121.377 21.0462C121.435 21.0307 121.495 21.0106 121.559 20.9859C121.651 20.9535 121.786 20.894 121.964 20.8075C122.321 20.6344 122.597 20.5217 122.792 20.4694C123.277 20.3395 123.699 20.3969 124.059 20.6415C124.248 20.769 124.367 20.9232 124.416 21.104C124.439 21.1908 124.445 21.286 124.434 21.3898C124.39 22.0062 123.785 22.6838 122.618 23.4226L122.808 23.6972C124.214 25.615 125.36 26.916 126.249 27.6003C126.376 27.698 126.6 27.855 126.922 28.0712ZM132.098 24.7542C132.336 25.4112 132.496 25.8916 132.577 26.1954L132.618 26.3473C133.356 26.0951 133.95 25.6184 134.397 24.9171C134.836 24.2105 135.014 23.4575 134.931 22.6579C134.926 22.5818 134.915 22.5111 134.898 22.446C134.82 22.1567 134.654 21.9262 134.398 21.7543C133.989 21.4688 133.437 21.3491 132.744 21.3953C132.447 21.413 132.186 21.4519 131.962 21.512C131.716 21.5779 131.519 21.6693 131.372 21.7861C131.307 21.9743 131.355 22.3721 131.518 22.9796C131.642 23.4425 131.835 24.034 132.098 24.7542ZM137.624 20.7738C137.882 21.1 138.063 21.4584 138.168 21.8489C138.447 22.8903 138.179 24.1479 137.365 25.6218C136.564 27.0609 135.548 28.085 134.316 28.6942C133.837 28.9311 133.571 29.1226 133.517 29.2688C133.484 29.3474 133.496 29.4952 133.554 29.7122C133.585 29.8279 133.629 29.9634 133.687 30.1186C133.833 30.5211 133.944 30.8634 134.02 31.1455L134.135 31.5331C134.818 33.9933 135.439 35.9198 135.998 37.3124C136.028 37.3973 136.054 37.4794 136.075 37.559C136.155 37.8555 136.142 38.1109 136.037 38.3251C135.921 38.5577 135.707 38.7157 135.396 38.799C134.97 38.9134 134.441 38.8805 133.812 38.7004C133.199 38.5236 132.65 37.88 132.167 36.7694C131.915 36.1779 131.628 35.2783 131.304 34.0706L131.007 32.9641C130.107 29.9809 129.41 27.5672 128.916 25.723C128.405 23.8138 128.11 22.513 128.033 21.8205C127.854 20.8919 127.837 20.2493 127.982 19.8927C128.087 19.6476 128.32 19.4765 128.681 19.3797L128.996 19.2954C130.457 18.9039 131.999 18.8008 133.622 18.986C135.53 19.1954 136.864 19.7914 137.624 20.7738ZM143.539 21.6887C143.777 22.3458 143.936 22.8262 144.018 23.1299L144.058 23.2818C144.797 23.0296 145.39 22.5529 145.838 21.8516C146.276 21.145 146.454 20.392 146.372 19.5925C146.367 19.5163 146.356 19.4456 146.338 19.3805C146.261 19.0913 146.094 18.8607 145.839 18.6888C145.429 18.4033 144.878 18.2837 144.185 18.3298C143.887 18.3475 143.626 18.3864 143.402 18.4465C143.156 18.5124 142.96 18.6038 142.813 18.7207C142.747 18.9088 142.796 19.3066 142.958 19.9141C143.082 20.377 143.276 20.9685 143.539 21.6887ZM149.064 17.7083C149.322 18.0345 149.504 18.3929 149.608 18.7834C149.887 19.8248 149.62 21.0824 148.805 22.5563C148.005 23.9954 146.989 25.0195 145.757 25.6287C145.278 25.8656 145.011 26.0571 144.958 26.2033C144.924 26.282 144.937 26.4298 144.995 26.6467C145.026 26.7624 145.07 26.8979 145.127 27.0531C145.274 27.4556 145.385 27.7979 145.46 28.08L145.576 28.4676C146.258 30.9278 146.879 32.8543 147.438 34.2469C147.469 34.3318 147.495 34.414 147.516 34.4935C147.595 34.79 147.583 35.0454 147.477 35.2597C147.361 35.4923 147.148 35.6502 146.837 35.7335C146.41 35.8479 145.882 35.815 145.252 35.6349C144.639 35.4581 144.091 34.8145 143.607 33.7039C143.356 33.1124 143.068 32.2128 142.745 31.0051L142.448 29.8986C141.548 26.9154 140.851 24.5017 140.357 22.6575C139.845 20.7483 139.551 19.4475 139.474 18.755C139.295 17.8264 139.278 17.1838 139.422 16.8272C139.527 16.5821 139.76 16.4111 140.122 16.3142L140.437 16.2299C141.897 15.8384 143.439 15.7353 145.062 15.9205C146.971 16.1299 148.305 16.7259 149.064 17.7083ZM155.115 22.1678C155.751 21.9973 156.312 22.0369 156.798 22.2866C157.228 22.5045 157.504 22.8377 157.624 23.2861C157.74 23.72 157.667 24.1271 157.405 24.5075C157.117 24.91 156.662 25.1947 156.04 25.3613C155.838 25.4156 155.617 25.4592 155.378 25.4923C154.99 25.5188 154.646 25.3938 154.347 25.1174C154.117 24.8924 153.96 24.6245 153.876 24.3135L153.844 24.1942C153.761 23.7978 153.809 23.4247 153.986 23.0749C154.201 22.6608 154.577 22.3585 155.115 22.1678ZM151.781 1.43572C152.08 1.65769 152.312 2.07241 152.474 2.67989C152.606 3.17166 152.692 3.78043 152.731 4.50621C152.749 4.83462 152.763 5.05959 152.773 5.18111C152.913 6.60078 153.19 8.08442 153.605 9.63204L153.759 10.207C153.89 10.6679 154.002 11.0719 154.095 11.419C154.188 11.7661 154.263 12.06 154.32 12.3006C154.406 12.6497 154.489 12.9761 154.57 13.2798C154.753 13.9596 154.929 14.5169 155.1 14.9517L155.302 15.4904C155.606 16.2463 155.831 16.899 155.978 17.4486C156.081 17.8319 156.147 18.1668 156.178 18.4532C156.262 19.5778 155.95 20.235 155.241 20.4249C154.872 20.5238 154.5 20.5073 154.123 20.3756C153.717 20.2208 153.389 19.9367 153.139 19.5232C152.82 18.9964 152.527 18.2377 152.262 17.2469C152.122 16.7262 151.992 16.1373 151.87 15.4801L151.956 15.5849C151.804 14.8428 151.595 13.9764 151.329 12.9856C151.18 12.4288 151.014 11.8377 150.831 11.2124L150.518 10.1334C150.472 9.95988 150.34 9.56891 150.123 8.96053C149.61 7.53987 149.263 6.48964 149.081 5.80984C149.042 5.66521 149.016 5.53671 149.001 5.42436C148.719 4.08155 148.788 3.00888 149.208 2.20634C149.453 1.76091 149.814 1.47424 150.292 1.34635L150.422 1.31147C151.028 1.17233 151.481 1.21374 151.781 1.43572Z" fill="#35A1A1"/>
</svg>
