<svg width="149" height="52" viewBox="0 0 149 52" fill="none" xmlns="http://www.w3.org/2000/svg">
<mask id="mask0_948_507" style="mask-type:luminance" maskUnits="userSpaceOnUse" x="0" y="0" width="52" height="52">
<path fill-rule="evenodd" clip-rule="evenodd" d="M0 28.2794V23.828C1.12545 10.4808 12.2796 0 25.8729 0C40.2138 0 51.8397 11.6647 51.8397 26.0537C51.8397 39.6417 41.4722 50.7998 28.2412 52H23.5046C11.004 50.866 1.05935 40.8427 0 28.2794" fill="white"/>
</mask>
<g mask="url(#mask0_948_507)">
<path fill-rule="evenodd" clip-rule="evenodd" d="M51.8398 26.0537C51.8398 40.4427 40.214 52.1069 25.873 52.1069C11.5326 52.1069 -0.0932617 40.4427 -0.0932617 26.0537C-0.0932617 11.6647 11.5326 0 25.873 0C40.214 0 51.8398 11.6647 51.8398 26.0537" fill="#F72697"/>
<path fill-rule="evenodd" clip-rule="evenodd" d="M8.73635 46.2108C8.73635 46.2108 4.14008 19.5252 17.689 13.212C30.2108 7.37805 34.1185 18.2744 34.1185 18.2744C34.1185 18.2744 36.1486 25.0658 26.6732 26.7947C17.1972 28.5231 17.9047 32.567 17.72 33.7398C17.5352 34.9132 21.5353 51.3354 23.6578 53.8358L10.2747 53.4962" fill="white"/>
<path fill-rule="evenodd" clip-rule="evenodd" d="M16.9201 56.8918C13.5358 47.1371 9.59767 35.2833 11.6898 21.2688C11.6898 21.2688 4.92162 27.196 11.3208 59.2995C11.3208 59.2995 20.3045 66.6465 16.9201 56.8918" fill="#E5E5E5"/>
<path fill-rule="evenodd" clip-rule="evenodd" d="M31.2781 21.0945C30.7579 21.5247 30.4268 22.1757 30.4268 22.905C30.4268 24.2005 31.4733 25.2511 32.765 25.2511C33.143 25.2511 33.5004 25.1611 33.8169 25.001L33.8237 24.9952C34.0426 24.8488 37.0579 22.905 42.979 22.905H43.0409C44.1279 22.905 45.0097 22.0203 45.0097 20.9291C45.0097 19.8385 44.1279 18.9538 43.0409 18.9538H42.979C38.3649 18.9538 34.7532 14.5085 34.7532 14.5085C34.2415 13.8913 33.6048 13.3973 32.765 13.3973C31.4733 13.3973 30.4268 14.4474 30.4268 15.7435C30.4268 16.4639 30.7506 17.1085 31.2597 17.5392C31.2597 17.5392 32.2113 18.3366 32.2113 19.324C32.2113 20.3119 31.2781 21.0945 31.2781 21.0945" fill="#FFBD15"/>
<path fill-rule="evenodd" clip-rule="evenodd" d="M23.9385 19.296C22.8389 19.296 21.8107 18.7762 21.3189 17.9721C21.0791 17.5797 21.2019 17.0663 21.5929 16.8256C21.9839 16.5855 22.4957 16.7082 22.735 17.1005C22.8956 17.3633 23.3607 17.6287 23.9385 17.6287C24.5847 17.6287 25.0492 17.3923 25.1578 17.1695C25.3594 16.7561 25.8575 16.5855 26.269 16.7877C26.681 16.9904 26.8516 17.4897 26.6495 17.9031C26.2301 18.762 25.1914 19.296 23.9385 19.296" fill="#000B38"/>
<path fill-rule="evenodd" clip-rule="evenodd" d="M43.0411 21.8244H42.9792C37.0471 21.8244 33.8386 23.7028 33.2822 24.0599C33.12 24.1336 32.9463 24.1705 32.7652 24.1705C32.0692 24.1705 31.5034 23.6028 31.5034 22.905C31.5034 22.5258 31.6714 22.1693 31.9632 21.9276L31.969 21.9234C32.1039 21.8101 33.288 20.7753 33.288 19.3239C33.288 17.8731 32.0876 16.8246 31.9538 16.7124C31.6677 16.4707 31.5034 16.1179 31.5034 15.7434C31.5034 15.0456 32.0692 14.4779 32.7652 14.4779C33.0061 14.4779 33.3882 14.5522 33.9226 15.1957C34.1341 15.4548 37.9478 20.0344 42.9792 20.0344H43.0411C43.5329 20.0344 43.9328 20.4357 43.9328 20.9291C43.9328 21.4231 43.5329 21.8244 43.0411 21.8244M43.0411 17.8731H42.9792C38.9445 17.8731 35.62 13.865 35.588 13.826L35.5811 13.8176C34.756 12.8217 33.8081 12.3167 32.7652 12.3167C32.3123 12.3167 31.8808 12.4062 31.4851 12.5674C30.5681 12.006 28.4561 10.8885 25.6837 10.5256C23.5071 10.2412 21.373 10.4788 19.3401 11.2329C16.8328 12.1624 14.4919 13.8786 12.3825 16.3343C10.1486 18.9337 8.60763 22.5669 7.80143 27.1327C7.16949 30.7127 6.98264 34.8826 7.24612 39.5279C7.69279 47.3931 9.25532 53.8242 9.32198 54.0944C9.4427 54.5868 9.88254 54.9164 10.3665 54.9164C10.4515 54.9164 10.5381 54.9059 10.6247 54.8848C11.2021 54.7421 11.5553 54.1565 11.4131 53.5772C11.3973 53.513 9.8269 47.0423 9.39441 39.371C9.14247 34.8994 9.32093 30.9029 9.92505 27.493C10.6635 23.3231 12.0387 20.0433 14.0133 17.7451C15.8671 15.5875 17.8931 14.0851 20.0345 13.2788C21.7257 12.6427 23.5034 12.4336 25.3194 12.6574C27.2562 12.8965 28.8392 13.5832 29.7792 14.0825C29.5063 14.5748 29.3499 15.141 29.3499 15.7434C29.3499 16.754 29.7913 17.7077 30.5639 18.3629C30.7429 18.5177 31.1345 18.9748 31.1345 19.3239C31.1345 19.6747 30.766 20.1091 30.5844 20.2682C29.7997 20.9217 29.3499 21.8818 29.3499 22.905C29.3499 23.5043 29.5047 24.0678 29.775 24.5586C29.0985 24.9093 28.0897 25.3522 26.8431 25.6592C25.7393 25.931 24.6424 26.0553 23.5559 26.0347C23.4987 26.0284 23.4404 26.0274 23.3816 26.0305C21.469 25.9663 19.5889 25.4491 17.7619 24.4807C17.2359 24.2021 16.5846 24.4043 16.3069 24.932C16.0293 25.4597 16.2303 26.1132 16.7562 26.3918C17.808 26.949 18.8373 27.3513 19.8288 27.633C18.9454 28.2613 18.0495 29.1176 17.363 30.2704C16.035 32.5006 15.8167 35.2517 16.7147 38.4473C19.294 47.6285 22.957 55.3956 22.9937 55.4731C23.178 55.8617 23.5643 56.0892 23.9669 56.0892C24.1217 56.0892 24.2792 56.0555 24.4287 55.9844C24.9657 55.7279 25.194 55.0834 24.9384 54.5446C24.9022 54.4688 21.3152 46.8585 18.7875 37.8611C18.0595 35.2686 18.1986 33.0941 19.201 31.3968C20.5384 29.1334 23.0615 28.3319 23.5832 28.187C23.6603 28.1886 23.7375 28.1892 23.8136 28.1892C25.2055 28.1892 26.44 27.9901 27.452 27.7342C29.3594 27.2512 30.7754 26.504 31.4809 26.079C31.8777 26.2412 32.3107 26.3312 32.7652 26.3312C33.2974 26.3312 33.8286 26.2048 34.302 25.9652L34.3934 25.9189L34.448 25.8767C34.7644 25.6735 37.5609 23.9851 42.9792 23.9851H43.0411C44.7201 23.9851 46.0869 22.6143 46.0869 20.9291C46.0869 19.2444 44.7201 17.8731 43.0411 17.8731" fill="#000B38"/>
</g>
<path fill-rule="evenodd" clip-rule="evenodd" d="M139.031 18.5295H140.807V17.7698H136.319V18.5295H138.095V23.4606H139.031V18.5295ZM148.199 17.7698V23.4606H147.263V18.709H147.236L145.377 23.4606H144.785L142.927 18.709H142.899V23.4606H141.963V17.7698H143.409L145.102 22.0931L146.768 17.7698H148.199Z" fill="#51576F"/>
<mask id="mask1_948_507" style="mask-type:luminance" maskUnits="userSpaceOnUse" x="60" y="10" width="76" height="31">
<path fill-rule="evenodd" clip-rule="evenodd" d="M92.6678 27.7953C92.5898 27.9127 92.319 27.9518 92.1378 27.9392C90.5936 27.8356 89.0506 27.7124 87.4767 27.5916C87.5432 28.4008 87.6315 29.0925 87.6545 29.7866C87.7646 33.2214 86.5279 36.0115 83.6966 37.9706C80.9961 39.8388 77.9387 40.4097 74.73 40.313C72.2153 40.2382 69.7981 39.6926 67.5106 38.6163C65.0601 37.4641 63.0181 35.8181 61.646 33.4205C60.8814 32.0928 60.4265 30.609 60.3153 29.0799C60.3049 28.9441 60.2682 28.8117 60.2441 28.677V26.8549C60.2705 26.7225 60.3107 26.5913 60.3222 26.4578C60.5401 24.082 61.2766 21.8881 62.5638 19.8887C64.42 17.0088 67.023 15.014 70.0253 13.5257C73.709 11.7036 77.6278 10.7597 81.7039 10.449C82.4209 10.3937 83.1379 10.3431 83.8549 10.2913H84.9987C85.7937 10.457 86.6117 10.5502 87.3769 10.8058C88.5952 11.2156 89.6334 11.9039 90.1187 13.2046C90.1325 13.2426 90.1439 13.284 90.1554 13.3231C90.4376 14.2394 90.3768 14.4466 89.6024 14.9876C88.5275 15.7369 87.3562 16.3354 86.1195 16.7659C84.5467 17.3207 83.4224 16.66 83.1207 15.0071C83.1058 14.9254 83.0771 14.8425 83.0851 14.7619C83.1345 14.2025 82.7674 14.0978 82.3394 14.0241C81.1567 13.8204 79.9773 13.8964 78.8003 14.0425C75.7258 14.4258 72.8543 15.4411 70.1882 17.0272C67.2582 18.7711 64.8158 21.0145 63.3095 24.1718C62.6751 25.5024 62.3252 26.9101 62.2151 28.3812C62.0292 30.8882 63.1305 32.7114 65.1611 34.019C66.914 35.1494 68.8677 35.6996 70.9086 35.9735C73.6516 36.3396 76.3659 36.2037 79.0389 35.4671C80.9089 34.9514 82.6561 34.1756 84.0694 32.7805C85.2924 31.5719 85.8992 30.0997 85.8075 28.3547C85.7971 28.1671 85.7478 27.9818 85.6996 27.7009C83.5888 28.0451 81.5135 28.3973 79.4324 28.7138C78.2376 28.8986 77.0376 29.0488 75.8336 29.1628C75.0409 29.2353 74.2527 29.1121 73.53 28.7438C72.4 28.1682 71.9193 27.1173 71.6233 25.9525C71.5981 25.8512 71.6887 25.6912 71.7725 25.6037C71.8195 25.5531 71.9927 25.5554 72.0547 25.6037C72.9702 26.315 74.0233 26.2045 75.0374 26.048C77.0118 25.7441 78.9747 25.3631 80.9376 24.9913C83.8182 24.4457 86.7103 24.0245 89.6518 24.1234C90.1003 24.1384 90.5477 24.181 90.9952 24.2224C91.3347 24.2547 91.5435 24.425 91.6674 24.7772C91.9588 25.606 92.3087 26.4129 92.6162 27.2359C92.6816 27.412 92.7481 27.6733 92.6678 27.7953ZM129.812 26.2529C128.8 27.8103 128.402 29.5714 128.227 31.405C130.115 29.9558 131.545 28.2062 132.088 25.8869C132.149 25.6267 132.073 25.1962 131.891 25.0627C131.702 24.9234 131.221 24.9326 131.017 25.0765C130.561 25.4 130.111 25.7925 129.812 26.2529ZM135.272 32.5066C135.741 34.5336 135.225 36.3211 133.682 37.7484C131.142 40.1 127.164 39.1965 125.799 35.9988C125.207 34.613 125.083 33.1615 125.213 31.3567C125.41 29.2583 126.121 27.0034 127.643 25.0385C128.371 24.0993 129.259 23.3292 130.45 22.9862C132.756 22.3221 134.65 23.5053 134.298 26.124C134.016 28.2143 132.778 29.7889 131.161 31.0804C130.332 31.7434 129.377 32.266 128.456 32.8162C128.188 32.9773 128.073 33.1212 128.087 33.4309C128.125 34.3252 128.227 35.2058 128.607 36.0311C129.306 37.5493 130.855 37.8659 132.117 36.7447C133.354 35.6478 133.712 34.2297 133.643 32.6712C133.629 32.3765 133.561 32.0841 133.511 31.7929C133.444 31.4027 133.567 31.2841 133.986 31.344C134.687 31.4476 135.122 31.8574 135.272 32.5066ZM118.442 25.3033C117.982 25.7533 117.763 26.3968 117.854 27.0356C119.094 27.3084 120.366 27.2739 121.618 26.7018C121.774 26.6299 121.93 26.555 122.083 26.4773C122.044 26.3645 122.001 26.2022 121.888 26.0169C121.179 24.8394 119.542 24.1937 118.442 25.3033ZM110.679 36.1232V36.122C111.71 33.8176 112.061 31.4119 111.523 28.9141C111.5 28.8025 111.469 28.6931 111.437 28.5861C110.786 28.8105 110.104 28.936 109.416 28.9579C108.788 28.9832 108.157 28.9567 107.526 28.9107C106.748 31.039 106.576 33.3428 107.029 35.5637C107.143 36.1404 107.415 36.7206 107.744 37.2109C108.217 37.9177 109.089 38.0005 109.708 37.4181C110.097 37.0544 110.462 36.6066 110.679 36.1232ZM110.857 25.1283C109.608 25.4379 108.817 26.2678 108.243 27.2969C109.424 27.2727 110.657 27.0459 111.353 26.1711C111.564 25.9075 111.741 25.4506 111.765 25.0373C111.465 25.0247 111.162 25.0512 110.857 25.1283ZM98.7457 36.1289H98.7469C99.7782 33.8257 100.133 31.42 99.5958 28.9222C99.5648 28.7829 99.5534 28.6713 99.5499 28.5792L99.2998 28.5297C98.2295 28.3202 97.1442 28.0612 96.1163 27.6687C95.5289 28.7783 95.202 29.9904 95.0207 31.2462C94.7764 32.929 94.7316 34.6164 95.288 36.2578C95.4073 36.6008 95.5806 36.9226 95.8008 37.2109C96.3194 37.8923 97.1511 38.0028 97.774 37.4227C98.1629 37.0601 98.5301 36.6124 98.7457 36.1289ZM99.3744 25.0535C98.3201 25.1398 97.4907 25.7015 96.8196 26.5625L97.0742 26.6627C97.1121 26.6776 97.1511 26.6903 97.189 26.7041C97.2406 26.7087 97.2911 26.711 97.3484 26.7214C97.8647 26.8019 98.8375 26.6719 99.2069 26.2264C99.4616 25.9191 99.5075 25.4345 99.3744 25.0535ZM122.584 32.0128C123.364 32.6654 124.423 33.4884 124.704 34.5267C125.017 35.6846 123.838 36.6906 123.048 37.349C121.965 38.2538 120.498 39.1228 119.041 39.0699C117.343 39.0077 115.936 37.6425 114.873 36.4374C114.405 35.9068 116.378 34.438 116.919 35.0504C117.765 36.0104 118.821 37.1027 120.129 37.3548C120.901 37.5044 122.504 36.9197 122.644 35.9965C122.82 34.8397 120.344 33.2283 119.633 32.6907C118.532 31.8597 117.149 31.1621 116.388 29.9673C116.096 29.5115 115.909 29.0338 115.821 28.5504C115.326 28.414 114.841 28.2442 114.368 28.0428C114.389 28.2764 114.424 28.5084 114.472 28.738C114.749 29.9835 113.748 35.1471 111.808 37.4262C109.744 39.8514 106.235 39.0871 105.001 36.3453C104.322 34.8363 104.136 33.2467 104.24 31.6179C104.29 30.7932 104.403 29.9737 104.577 29.1662C103.92 29.1973 103.243 29.1604 102.572 29.0856C102.481 29.1835 102.434 29.294 102.434 29.4896C102.441 32.411 101.821 35.1402 99.8826 37.4204C97.8165 39.8537 94.3083 39.0848 93.0728 36.3522C92.5921 35.2812 92.3299 34.1244 92.3018 32.9497C92.2181 30.1665 92.802 27.5375 94.2521 25.1456C94.9737 23.9542 95.8915 22.9609 97.2761 22.5465C98.1434 22.2875 99.0061 22.352 99.8402 22.6938C100.758 23.0691 101.617 24.0705 101.609 25.1341C101.81 25.728 101.7 26.2241 101.398 26.6258C102.604 26.9919 103.907 27.0817 105.183 27.1507L105.247 26.9884C105.842 24.9695 107.24 22.9125 109.176 22.5154C109.29 22.4924 109.404 22.4757 109.52 22.4659C110.278 22.3105 111.065 22.3905 111.776 22.6961C112.34 22.9275 112.777 23.4086 113.017 23.9899C113.267 24.3007 113.447 24.6621 113.546 25.0489C114.343 25.5611 115.194 26.0561 116.078 26.4417C116.23 26.0952 116.428 25.7712 116.666 25.4782C118.368 23.3833 122.495 21.6936 124.061 24.8544C125.091 26.932 121.792 28.0278 120.288 28.5124C119.757 28.6833 119.208 28.7915 118.652 28.8359C118.926 29.1967 119.248 29.5179 119.61 29.7889C120.607 30.5256 121.631 31.2151 122.584 32.0128Z" fill="white"/>
</mask>
<g mask="url(#mask1_948_507)">
<path fill-rule="evenodd" clip-rule="evenodd" d="M60.21 40.3568H135.444V10.2452H60.21V40.3568Z" fill="#000B38"/>
</g>
</svg>
