<svg width="190" height="190" viewBox="0 0 190 190" fill="none" xmlns="http://www.w3.org/2000/svg">
<g id="noun-health-care-6347457 1">
<path id="Vector" opacity="0.75" d="M180.411 25.2907L162.466 8.98233C160.78 7.45467 158.772 6.67969 156.496 6.67969H63.1698C58.0357 6.67969 53.8597 10.8557 53.8597 15.9898V72.5544C50.7096 73.5403 48.4027 76.4515 48.4027 79.9225V85.4573C27.1876 89.0958 10.2333 106.915 6.75788 123.689C6.43689 125.239 7.12094 126.82 8.50208 127.715C10.0774 128.734 12.1518 128.686 13.6628 127.597C16.1102 125.827 17.8791 125.621 20.7576 129.398C21.5591 130.453 22.8778 131.082 24.286 131.082C25.6937 131.082 27.0124 130.453 27.8126 129.4C29.1368 127.662 32.0969 126.495 35.1787 126.495C37.7968 126.495 39.9894 127.322 41.042 128.703C41.8417 129.756 43.1603 130.383 44.5668 130.385C45.9726 130.385 47.2912 129.756 48.0952 128.703C48.1732 128.601 48.2888 128.496 48.397 128.393V161.507C48.397 173.74 58.1784 183.318 70.6635 183.318C78.2598 183.318 85.075 179.347 88.9937 173.284H174.003C179.137 173.284 183.313 169.108 183.313 163.974L183.312 31.8635C183.312 29.2931 182.307 27.0201 180.404 25.2895L180.411 25.2907ZM176.617 29.4648C176.767 29.5996 176.898 29.74 177.016 29.8866H163.013C159.99 29.8866 157.529 27.4263 157.529 24.4012V12.473C157.94 12.6059 158.312 12.8304 158.673 13.1589L176.617 29.4648ZM54.0448 79.9241C54.0448 78.7576 54.9929 77.8095 56.1593 77.8095C57.3258 77.8095 58.2758 78.7577 58.2758 79.9241V84.8262C57.5973 84.7978 56.9176 84.7767 56.2336 84.7767C55.5 84.7767 54.7727 84.7978 54.0467 84.8318V79.9241L54.0448 79.9241ZM44.5886 124.221C42.3694 122.068 39.0253 120.856 35.1839 120.856H35.1821C30.8935 120.856 26.8789 122.361 24.3275 124.856C21.6656 121.821 19.0227 120.738 16.6039 120.738C15.4028 120.738 14.2555 121.008 13.1916 121.433C18.257 105.876 35.7066 90.416 56.2346 90.416C76.3825 90.416 93.8894 105.733 99.1461 121.079C94.9379 119.701 90.9666 120.775 87.8431 124.168C85.512 121.866 82.0633 120.526 78.3276 120.526C74.5678 120.526 71.0962 121.884 68.767 124.216C67.1081 122.692 64.6535 121.594 61.718 121.008C61.6703 120.997 61.6227 120.991 61.5757 120.984C60.0573 120.691 58.4214 120.526 56.6853 120.526C54.5267 120.526 52.5186 120.775 50.7118 121.221C50.6358 121.235 50.5634 121.259 50.4898 121.278C48.0654 121.905 46.0267 122.9 44.5925 124.221L44.5886 124.221ZM70.6693 177.679C61.3461 177.679 54.0443 170.577 54.0443 161.508V126.336C54.8613 126.236 55.7298 126.167 56.6815 126.167C57.2344 126.167 57.7645 126.189 58.2735 126.224V161.214C58.2735 167.916 63.7379 173.369 70.4548 173.369C76.3867 173.369 81.5485 168.95 82.4647 163.09C82.6205 162.09 83.4357 161.391 84.4464 161.391C85.212 161.391 85.885 161.659 86.2932 162.127C86.6445 162.529 86.7818 163.046 86.6976 163.667C85.6258 171.655 78.7343 177.679 70.6693 177.679ZM174.01 167.645H91.5788C91.8868 166.598 92.1392 165.527 92.2876 164.417C92.5876 162.179 91.9666 160.047 90.5378 158.416C89.0578 156.723 86.8368 155.754 84.4445 155.754C80.6501 155.754 77.4753 158.475 76.8884 162.223C76.3979 165.362 73.6321 167.729 70.4529 167.729C66.8483 167.729 63.9149 164.807 63.9149 161.214V127.662C64.5247 127.996 64.9923 128.355 65.2601 128.709C66.0617 129.76 67.3803 130.387 68.7849 130.387C70.1907 130.387 71.5075 129.758 72.3115 128.705C73.5219 127.115 75.7676 126.167 78.3213 126.167C80.8751 126.167 83.1226 127.115 84.3367 128.709C85.1383 129.76 86.457 130.387 87.8616 130.387C89.2674 130.387 90.5841 129.758 91.3881 128.706C93.5411 125.877 95.9043 125.409 99.0568 127.195C100.617 128.073 102.623 127.948 104.044 126.883C105.308 125.937 105.878 124.425 105.532 122.935C101.721 106.509 85.2414 88.9281 63.9091 85.4178V79.9251C63.9091 76.8487 62.0964 74.2096 59.4956 72.9578L59.4937 15.991C59.4937 13.9674 61.1407 12.3202 63.1645 12.3202H151.883V24.4006C151.883 30.5354 156.873 35.5254 163.006 35.5254H177.672V163.973C177.672 165.997 176.025 167.644 174.001 167.644L174.01 167.645ZM169.846 90.0541C169.846 91.6102 168.582 92.8738 167.026 92.8738H89.6677C88.1097 92.8738 86.848 91.6103 86.848 90.0541C86.848 88.4979 88.1115 87.2343 89.6677 87.2343H167.026C168.584 87.2343 169.846 88.4979 169.846 90.0541ZM169.846 108.888C169.846 110.444 168.582 111.708 167.026 111.708H107.889C106.331 111.708 105.069 110.444 105.069 108.888C105.069 107.332 106.333 106.068 107.889 106.068H167.026C168.584 106.068 169.846 107.332 169.846 108.888ZM169.846 127.718C169.846 129.275 168.582 130.538 167.026 130.538H111.784C110.226 130.538 108.964 129.275 108.964 127.718C108.964 126.162 110.228 124.899 111.784 124.899H167.026C168.584 124.899 169.846 126.162 169.846 127.718ZM169.846 146.552C169.846 148.108 168.582 149.372 167.026 149.372H78.2677C76.7097 149.372 75.448 148.108 75.448 146.552C75.448 144.996 76.7115 143.732 78.2677 143.732H167.026C168.584 143.732 169.846 144.996 169.846 146.552Z" fill="#AC6D0E"/>
<path id="Vector_2" d="M103 53.4257H113.564V63.99H119.423V53.4257H129.99V47.567H119.423V37H113.564V47.567H103V53.4257Z" fill="#6E4119"/>
<path id="Subtract" fill-rule="evenodd" clip-rule="evenodd" d="M116.498 75C130.008 75 141 64.0105 141 50.5016C141 36.9927 130.009 26 116.498 26C102.988 26 92 36.9914 92 50.5016C92 64.0118 102.99 75 116.498 75ZM116.519 32C126.731 32 135.041 40.3089 135.041 50.5218C135.041 60.7348 126.732 69.0405 116.519 69.0405C106.306 69.0405 98 60.7335 98 50.5218C98 40.3101 106.309 32 116.519 32Z" fill="#6E4119"/>
</g>
</svg>
