<svg width="167" height="35" viewBox="0 0 167 35" fill="none" xmlns="http://www.w3.org/2000/svg">
<path d="M15.9572 3.23058C16.4322 2.05602 18.0952 2.05601 18.5702 3.23057L21.4189 10.2747C21.6208 10.7739 22.0895 11.1144 22.6266 11.1521L30.2063 11.6847C31.4701 11.7735 31.984 13.3551 31.0137 14.1698L25.1947 19.0558C24.7823 19.4021 24.6033 19.9531 24.7334 20.4756L26.5692 27.8488C26.8753 29.0783 25.5299 30.0557 24.4552 29.3847L18.0101 25.3603C17.5534 25.0751 16.974 25.0751 16.5173 25.3603L10.0722 29.3847C8.99753 30.0557 7.65217 29.0783 7.95827 27.8488L9.79402 20.4756C9.92411 19.9531 9.74509 19.4021 9.33271 19.0558L3.51368 14.1698C2.54339 13.3551 3.05727 11.7735 4.32113 11.6847L11.9008 11.1521C12.4379 11.1144 12.9066 10.7739 13.1085 10.2747L15.9572 3.23058Z" fill="#FFC01B"/>
<path d="M49.0754 3.23062C49.5504 2.05606 51.2134 2.05606 51.6884 3.23062L54.5371 10.2747C54.739 10.7739 55.2077 11.1144 55.7448 11.1522L63.3245 11.6847C64.5883 11.7735 65.1022 13.3551 64.1319 14.1698L58.3129 19.0559C57.9005 19.4021 57.7215 19.9531 57.8516 20.4756L59.6873 27.8489C59.9934 29.0783 58.6481 30.0558 57.5734 29.3847L51.1283 25.3604C50.6715 25.0752 50.0922 25.0752 49.6355 25.3604L43.1904 29.3847C42.1157 30.0558 40.7703 29.0783 41.0764 27.8489L42.9122 20.4756C43.0423 19.9531 42.8633 19.4021 42.4509 19.0559L36.6318 14.1698C35.6616 13.3551 36.1754 11.7735 37.4393 11.6847L45.0189 11.1522C45.5561 11.1144 46.0248 10.7739 46.2267 10.2747L49.0754 3.23062Z" fill="#FFC01B"/>
<path d="M82.1936 3.23062C82.6686 2.05606 84.3315 2.05606 84.8065 3.23062L87.6553 10.2747C87.8571 10.7739 88.3258 11.1144 88.863 11.1522L96.4426 11.6847C97.7065 11.7735 98.2204 13.3551 97.2501 14.1698L91.431 19.0559C91.0187 19.4021 90.8396 19.9531 90.9697 20.4756L92.8055 27.8489C93.1116 29.0783 91.7662 30.0558 90.6915 29.3847L84.2464 25.3604C83.7897 25.0752 83.2104 25.0752 82.7536 25.3604L76.3085 29.3847C75.2339 30.0558 73.8885 29.0783 74.1946 27.8489L76.0303 20.4756C76.1604 19.9531 75.9814 19.4021 75.569 19.0559L69.75 14.1698C68.7797 13.3551 69.2936 11.7735 70.5575 11.6847L78.1371 11.1522C78.6743 11.1144 79.1429 10.7739 79.3448 10.2747L82.1936 3.23062Z" fill="#FFC01B"/>
<path d="M115.312 3.23062C115.787 2.05606 117.45 2.05606 117.925 3.23062L120.773 10.2747C120.975 10.7739 121.444 11.1144 121.981 11.1522L129.561 11.6847C130.825 11.7735 131.339 13.3551 130.368 14.1698L124.549 19.0559C124.137 19.4021 123.958 19.9531 124.088 20.4756L125.924 27.8489C126.23 29.0783 124.884 30.0558 123.81 29.3847L117.365 25.3604C116.908 25.0752 116.329 25.0752 115.872 25.3604L109.427 29.3847C108.352 30.0558 107.007 29.0783 107.313 27.8489L109.149 20.4756C109.279 19.9531 109.1 19.4021 108.687 19.0559L102.868 14.1698C101.898 13.3551 102.412 11.7735 103.676 11.6847L111.255 11.1522C111.792 11.1144 112.261 10.7739 112.463 10.2747L115.312 3.23062Z" fill="#FFC01B"/>
<path d="M148.43 3.23062C148.905 2.05606 150.568 2.05606 151.043 3.23062L153.892 10.2747C154.093 10.7739 154.562 11.1144 155.099 11.1522L162.679 11.6847C163.943 11.7735 164.457 13.3551 163.486 14.1698L157.667 19.0559C157.255 19.4021 157.076 19.9531 157.206 20.4756L159.042 27.8489C159.348 29.0783 158.003 30.0558 156.928 29.3847L150.483 25.3604C150.026 25.0752 149.447 25.0752 148.99 25.3604L142.545 29.3847C141.47 30.0558 140.125 29.0783 140.431 27.8489L142.267 20.4756C142.397 19.9531 142.218 19.4021 141.805 19.0559L135.986 14.1698C135.016 13.3551 135.53 11.7735 136.794 11.6847L144.373 11.1522C144.911 11.1144 145.379 10.7739 145.581 10.2747L148.43 3.23062Z" fill="#FFC01B" fill-opacity="0.4"/>
<path d="M148.43 3.23062C148.905 2.05606 150.568 2.05606 151.043 3.23062L153.984 10.5019C154.135 10.8762 154.119 11.2974 153.939 11.6588L151.146 17.2638L150.124 20.3297C150.101 20.3996 150.083 20.4711 150.071 20.5437L149.737 22.5486L149.476 24.3721C149.418 24.78 149.184 25.1419 148.836 25.3627L142.563 29.3435C141.489 30.0251 140.133 29.0474 140.44 27.8131L142.267 20.4756C142.397 19.9531 142.218 19.4021 141.806 19.0559L135.987 14.1698C135.016 13.3551 135.53 11.7735 136.794 11.6847L144.374 11.1522C144.911 11.1144 145.38 10.7739 145.581 10.2747L148.43 3.23062Z" fill="#FFC01B"/>
</svg>
